<svg width="32" height="32" viewBox="0 0 32 32" version="1.1" xmlns="http://www.w3.org/2000/svg" xmlns:xlink="http://www.w3.org/1999/xlink">
<title>entire</title>
<desc>Created using Figma</desc>
<g id="Canvas" transform="translate(-4835 -5699)">
<g id="entire">
<g id="Shape">
<use xlink:href="#path0_fill" transform="translate(4835 5699)"/>
</g>
</g>
</g>
<defs>
<path id="path0_fill" fill-rule="evenodd" d="M 30 31L 31.5 31C 31.7764 31 32 31.2236 32 31.5C 32 31.7764 31.7764 32 31.5 32L 25 32L 25 21.6758C 25 20.752 24.3271 20 23.5 20C 22.6729 20 22 20.752 22 21.6758L 22 32L 0.5 32C 0.320312 32 0.162598 31.9053 0.074707 31.7632C 0.0273438 31.6865 0 31.5967 0 31.5C 0 31.3931 0.0336914 31.2939 0.0908203 31.2124C 0.181152 31.0835 0.330566 31 0.5 31L 3 31L 3 27L 1 27C 0.936035 27 0.873535 26.9878 0.81543 26.9644C 0.736816 26.9331 0.666504 26.8823 0.612305 26.8154C 0.517578 26.6987 0.480469 26.5454 0.51123 26.3979L 3.01123 14.3979C 3.05811 14.1655 3.2627 13.9985 3.5 13.9985C 3.7373 13.9985 3.94189 14.1655 3.98877 14.3979L 6.48877 26.3989C 6.51953 26.5459 6.48193 26.6992 6.38721 26.8154C 6.29248 26.9321 6.15039 27 6 27L 4 27L 4 31L 9 31L 9 6.02295L 19.5 0.00390625L 25 3.15723L 25 0.5C 25 0.223633 25.2236 0 25.5 0C 25.7764 0 26 0.223633 26 0.5L 26 3.72998L 30 6.02295L 30 31ZM 26 31L 29 31L 29 6.60156L 19.5 1.15576L 10 6.60156L 10 31L 21 31L 21 21.6758C 21 20.1997 22.1211 19 23.5 19C 24.8789 19 26 20.1997 26 21.6758L 26 31ZM 25.25 16C 25.6641 16 26 15.6641 26 15.25L 26 10.5059C 26.0005 9.12402 24.8818 8.00293 23.5 8C 22.1182 8.00293 20.9995 9.12402 21 10.5059L 21 15.251C 21.0059 15.6626 21.3384 15.9946 21.75 16L 25.25 16ZM 22 10.5059C 22 9.6748 22.6729 9 23.5 9C 24.3271 9 25 9.6748 25 10.5059L 25 15L 22 15L 22 10.5059ZM 14 21.5059L 14 26L 17 26L 17 21.5059C 17 20.6758 16.3271 20 15.5 20C 14.6729 20 14 20.6758 14 21.5059ZM 15.5 19C 14.1182 19.0034 13 20.1245 13 21.5059L 13 26.251C 13.0059 26.6626 13.3384 26.9946 13.75 27L 17.25 27C 17.4419 27 17.6172 26.9277 17.75 26.8091C 17.9033 26.6719 18 26.4722 18 26.25L 18 21.5059C 18 20.1245 16.8818 19.0034 15.5 19ZM 14 15L 17 15L 17 10.5059C 17 9.6748 16.3271 9 15.5 9C 14.6729 9 14 9.6748 14 10.5059L 14 15ZM 15.5 8C 14.1182 8.00342 13 9.12451 13 10.5059L 13 15.251C 13.0059 15.6626 13.3384 15.9946 13.75 16L 17.25 16C 17.6641 16 18 15.6641 18 15.25L 18 10.5059C 18 9.12451 16.8818 8.00342 15.5 8ZM 1.61523 26L 3.5 16.9521L 5.38525 26L 1.61523 26Z"/>
</defs>
</svg>
