<svg width="32" height="32" viewBox="0 0 32 32" version="1.1" xmlns="http://www.w3.org/2000/svg" xmlns:xlink="http://www.w3.org/1999/xlink">
<title>privat</title>
<desc>Created using Figma</desc>
<g id="Canvas" transform="translate(-4835 -5761)">
<g id="privat">
<g id="Shape">
<use xlink:href="#path0_fill" transform="translate(4835 5761)"/>
</g>
</g>
</g>
<defs>
<path id="path0_fill" fill-rule="evenodd" d="M 31.5 32C 31.7764 32 32 31.7764 32 31.5C 32 31.3418 31.9268 31.2012 31.812 31.1094C 31.7266 31.041 31.6182 31 31.5 31L 23 31L 23 7C 23 3.14014 19.8589 0 16 0C 12.1411 0 9 3.14014 9 7L 9 8.5C 9 8.77637 9.22363 9 9.5 9C 9.77637 9 10 8.77637 10 8.5L 10 7C 10 3.69092 12.6909 1 16 1C 19.3091 1 22 3.69092 22 7L 22 31L 10 31L 10 23.5C 10 23.2236 9.77637 23 9.5 23C 9.22363 23 9 23.2236 9 23.5L 9 31L 0.5 31C 0.358398 31 0.230469 31.0586 0.139648 31.1533C 0.0532227 31.2432 0 31.3652 0 31.5C 0 31.7764 0.223633 32 0.5 32L 31.5 32ZM 14 15.5L 14 21.5C 14 21.7764 13.7764 22 13.5 22L 5.5 22C 5.22363 22 5 21.7764 5 21.5L 5 15.5C 5 15.356 5.06104 15.2261 5.1582 15.1348C 5.24756 15.0513 5.36768 15 5.5 15L 7 15L 7 13.5C 7 12.1221 8.12109 11 9.5 11C 10.8789 11 12 12.1221 12 13.5L 12 15L 13.5 15C 13.7764 15 14 15.2236 14 15.5ZM 11 13.5L 11 15L 8 15L 8 13.5C 8 12.6729 8.67285 12 9.5 12C 10.3271 12 11 12.6729 11 13.5ZM 13 21L 13 16L 6 16L 6 21L 13 21ZM 19.9102 17.415C 19.9219 17.3896 19.9326 17.3638 19.9419 17.3374C 19.9795 17.2319 20 17.1182 20 17C 20 16.7559 19.9121 16.5317 19.7666 16.3579C 19.5835 16.1392 19.3081 16 19 16C 18.6597 16 18.3589 16.1699 18.1782 16.4302C 18.0659 16.5918 18 16.7881 18 17C 18 17.2148 18.0679 17.4141 18.1831 17.5771C 18.3643 17.833 18.6626 18 19 18C 19.3062 18 19.5801 17.8623 19.7637 17.646C 19.8223 17.5767 19.8721 17.499 19.9102 17.415Z"/>
</defs>
</svg>
