<svg width="33" height="32" viewBox="0 0 33 32" version="1.1" xmlns="http://www.w3.org/2000/svg" xmlns:xlink="http://www.w3.org/1999/xlink">
<title>shared</title>
<desc>Created using Figma</desc>
<g id="Canvas" transform="translate(-4834 -5823)">
<g id="shared">
<g id="Shape">
<use xlink:href="#path0_fill" transform="translate(4835 5823.5)"/>
</g>
</g>
</g>
<defs>
<path id="path0_fill" fill-rule="evenodd" d="M 30.3428 1.63525C 30.2524 1.55127 30.1318 1.50049 30.001 1.5L 27.001 1.5L 27.001 0.5C 27.001 0.356934 26.9409 0.228027 26.8447 0.137207C 26.7554 0.0522461 26.6343 0 26.501 0C 26.2251 0 26.001 0.223633 26.001 0.5L 26.001 1.5L 23.001 1.5C 22.8511 1.5 22.7139 1.56641 22.6216 1.67432C 22.5688 1.73584 22.5303 1.81104 22.5122 1.89502L 21.0122 8.89502C 20.9795 9.04297 21.0161 9.19775 21.1113 9.31543C 21.1616 9.37695 21.2246 9.4248 21.2949 9.45654C 21.3594 9.48535 21.4297 9.50049 21.502 9.5L 26.001 9.5L 26.001 30.5L 24.501 30.5C 24.3862 30.5 24.2808 30.5386 24.1963 30.6035C 24.0776 30.6948 24.001 30.8384 24.001 31C 24.001 31.2764 24.2251 31.5 24.501 31.5L 28.501 31.5C 28.7773 31.5 29.001 31.2764 29.001 31C 29.001 30.7236 28.7773 30.5 28.501 30.5L 27.001 30.5L 27.001 9.5L 31.501 9.5C 31.5376 9.5 31.5732 9.49609 31.6079 9.48828C 31.6255 9.48438 31.6426 9.47998 31.6592 9.47412L 31.6963 9.46045L 31.7251 9.44727C 31.7881 9.41553 31.8447 9.37061 31.8901 9.31445C 31.9849 9.19678 32.021 9.04248 31.9893 8.89502L 30.4902 1.89502C 30.4854 1.87305 30.479 1.85156 30.4717 1.83057C 30.4609 1.80078 30.4478 1.77246 30.4321 1.74561C 30.4199 1.7251 30.4062 1.70557 30.3916 1.6875C 30.3765 1.66895 30.3604 1.65137 30.3428 1.63525ZM 22.1191 8.5L 23.4053 2.5L 29.5972 2.5L 30.8833 8.5L 22.1191 8.5ZM 18.0015 30.5L 20.5483 30.5L 20.9985 21.9482C 21.0063 21.8013 20.9932 21.6577 20.9604 21.522C 20.9341 21.4126 20.8945 21.3081 20.8433 21.2104C 20.7876 21.105 20.7173 21.0068 20.6333 20.9189C 20.3774 20.6479 20.0186 20.5 19.6255 20.5L 18.0015 20.5L 18.0015 30.5ZM 5.00146 26.5L 17.0015 26.5L 17.0015 24.5L 5.00146 24.5L 5.00146 26.5ZM 1.45459 30.5L 4.00146 30.5L 4.00146 20.5L 2.37744 20.5C 1.99756 20.4937 1.63281 20.6455 1.36963 20.9194C 1.17529 21.1265 1.05225 21.3872 1.01367 21.6641C 1.00098 21.7573 0.997559 21.8525 1.00439 21.9482L 1.45459 30.5ZM 5.00146 16.5029C 5.00146 15.3979 5.89941 14.5 7.00439 14.5L 14.9985 14.5C 16.1025 14.5 17.0015 15.3979 17.0015 16.5029L 17.0015 23.5L 5.00146 23.5L 5.00146 16.5029ZM 18.0015 16.5029L 18.0015 19.5L 19.6255 19.5C 20.2798 19.4912 20.9087 19.7559 21.3589 20.231C 21.5581 20.4409 21.7144 20.6831 21.8228 20.9443C 21.96 21.2749 22.0215 21.6362 21.9971 22.001L 21.4961 31.5L 17.0015 31.5L 17.0015 27.5L 5.00146 27.5L 5.00146 31.5L 0.506348 31.5L 0.00537109 22.001C -0.0385742 21.3477 0.192871 20.7061 0.643066 20.231C 1.09375 19.7559 1.72266 19.4907 2.37744 19.5L 4.00146 19.5L 4.00146 16.5029C 4.00098 15.7065 4.31738 14.9424 4.88037 14.3794C 5.44385 13.8159 6.20752 13.4995 7.00439 13.5L 14.998 13.5C 15.7949 13.4995 16.5586 13.8159 17.1221 14.3794C 17.6851 14.9424 18.0015 15.7065 18.0015 16.5029Z"/>
</defs>
</svg>
