<?xml version="1.0" standalone="no"?>
<!DOCTYPE svg PUBLIC "-//W3C//DTD SVG 20010904//EN"
 "http://www.w3.org/TR/2001/REC-SVG-20010904/DTD/svg10.dtd">
<svg version="1.0" xmlns="http://www.w3.org/2000/svg"
 width="1024.000000pt" height="1024.000000pt" viewBox="0 0 1024.000000 1024.000000"
 preserveAspectRatio="xMidYMid meet">
<metadata>
Created by potrace 1.11, written by Peter Selinger 2001-2013
</metadata>
<g transform="translate(0.000000,1024.000000) scale(0.100000,-0.100000)"
fill="#000000" stroke="none">
<path d="M5008 10235 c-2 -1 -41 -5 -88 -8 -47 -4 -96 -9 -110 -11 -14 -3 -41
-7 -60 -10 -54 -9 -79 -14 -89 -20 -5 -3 -26 -8 -47 -12 -80 -13 -303 -107
-387 -164 -25 -16 -48 -30 -51 -30 -7 0 -12 -4 -67 -50 -20 -16 -39 -30 -43
-30 -15 0 -229 -209 -281 -275 -16 -21 -35 -43 -41 -49 -49 -51 -198 -275
-288 -431 -31 -55 -61 -107 -66 -115 -5 -8 -28 -53 -51 -100 -24 -47 -47 -88
-52 -91 -5 -3 -8 -9 -8 -13 2 -10 -173 -361 -181 -364 -5 -2 -8 -9 -8 -15 0
-7 -7 -25 -16 -42 -9 -16 -85 -165 -169 -330 -84 -165 -162 -317 -173 -337
-12 -21 -19 -38 -16 -38 4 0 1 -6 -5 -14 -12 -14 -223 -436 -432 -861 -51
-104 -98 -193 -104 -197 -5 -4 -7 -8 -3 -8 4 0 -21 -55 -55 -122 -34 -68 -60
-126 -59 -130 1 -5 -3 -8 -8 -8 -6 0 -10 -4 -10 -9 0 -5 -46 -103 -101 -218
-56 -114 -127 -262 -159 -328 -126 -264 -192 -401 -201 -415 -5 -8 -12 -22
-15 -30 -4 -8 -30 -64 -59 -125 -76 -158 -150 -314 -207 -435 -27 -58 -60
-127 -74 -154 -13 -28 -24 -55 -24 -62 0 -7 -5 -14 -11 -16 -5 -2 -11 -10 -13
-18 -1 -8 -26 -64 -55 -125 -29 -60 -69 -144 -87 -185 -19 -41 -39 -82 -44
-90 -6 -8 -13 -22 -16 -30 -3 -8 -31 -66 -61 -129 -30 -63 -52 -119 -49 -126
2 -7 1 -16 -4 -21 -7 -8 -45 -90 -205 -439 -12 -27 -32 -75 -45 -105 -37 -90
-51 -124 -60 -145 -48 -105 -133 -352 -144 -417 -2 -15 -7 -31 -9 -35 -3 -5
-8 -26 -12 -48 -8 -49 -13 -70 -16 -70 -1 0 -3 -13 -4 -30 -2 -16 -4 -30 -5
-30 -2 0 -5 -22 -16 -120 -10 -93 -10 -420 0 -485 7 -43 14 -96 20 -151 2 -15
6 -31 10 -37 3 -5 8 -27 12 -48 3 -22 9 -52 14 -69 48 -158 54 -174 113 -315
6 -14 11 -27 12 -30 8 -33 146 -271 187 -325 5 -5 33 -43 64 -84 112 -148 228
-261 447 -437 9 -8 21 -14 25 -14 4 0 23 -14 42 -30 19 -16 38 -30 43 -30 4 0
24 -11 45 -23 87 -55 97 -62 102 -62 3 -1 44 -20 92 -43 96 -46 106 -51 223
-93 74 -28 207 -65 265 -75 14 -3 32 -7 40 -9 15 -4 69 -14 120 -21 207 -27
582 -19 730 16 19 5 51 11 70 14 19 3 67 15 105 27 39 11 78 21 88 21 9 -1 17
4 17 10 0 6 3 9 6 6 5 -6 142 40 189 62 21 10 77 33 85 34 11 3 259 128 300
152 25 15 59 35 77 45 54 30 118 73 125 84 5 7 8 7 8 0 0 -7 3 -7 8 0 4 6 34
28 67 50 65 43 251 182 301 224 17 14 50 42 75 63 158 130 466 424 581 555
l37 41 68 -69 c216 -222 327 -329 454 -439 35 -30 70 -62 79 -70 8 -8 36 -31
60 -50 25 -19 55 -45 68 -58 12 -13 22 -19 22 -15 0 4 4 3 8 -2 4 -6 23 -22
42 -35 38 -27 65 -48 85 -68 8 -6 18 -12 23 -12 6 0 12 -3 14 -8 2 -4 37 -30
78 -57 41 -28 77 -53 80 -56 29 -35 508 -287 529 -279 2 1 7 -2 10 -7 8 -10
64 -31 211 -79 63 -20 122 -39 130 -42 31 -10 45 -13 63 -13 9 0 17 -3 17 -7
0 -4 19 -8 42 -10 22 -1 46 -6 52 -10 6 -3 18 -7 26 -8 8 -1 38 -5 65 -9 156
-21 543 -22 641 -1 12 2 45 7 75 11 30 4 57 9 60 11 3 2 21 6 40 9 168 29 549
179 669 265 15 11 33 20 39 20 6 0 11 4 11 9 0 5 9 13 20 16 11 3 26 12 33 18
7 7 35 28 62 46 28 19 52 37 55 40 3 4 28 24 55 45 62 50 251 239 291 292 16
21 37 48 46 58 10 11 30 38 45 60 16 23 31 43 36 44 4 2 7 8 7 12 0 5 14 29
30 53 17 25 30 49 30 55 0 6 4 12 9 14 5 2 34 57 66 123 31 66 61 128 66 137
5 10 9 22 9 27 0 5 8 26 17 47 9 22 18 44 19 51 1 7 11 43 22 80 11 37 24 82
28 98 4 17 8 32 9 35 3 14 15 79 20 110 3 19 8 51 11 70 3 19 7 63 8 96 2 34
5 66 7 70 10 21 -2 323 -15 394 -3 14 -7 42 -10 63 -3 20 -9 54 -12 75 -30
188 -166 589 -298 875 -18 40 -46 101 -62 137 -15 36 -32 68 -37 71 -5 4 -7
11 -3 17 3 6 2 12 -2 14 -7 2 -57 100 -67 128 -6 18 -30 73 -51 117 -13 28
-24 56 -24 61 0 5 -7 15 -15 22 -8 7 -12 16 -9 21 3 5 1 9 -4 9 -5 0 -9 6 -9
13 0 6 -32 77 -71 157 -94 196 -168 352 -204 430 -16 36 -34 72 -39 80 -5 8
-12 22 -15 30 -3 8 -25 56 -49 105 -79 166 -85 179 -85 192 0 7 -4 13 -9 13
-5 0 -13 10 -16 22 -4 11 -46 100 -92 197 -47 97 -113 235 -148 306 -34 72
-97 202 -140 290 -178 368 -215 447 -215 456 0 5 -4 9 -10 9 -5 0 -10 4 -10
10 0 17 -468 961 -800 1615 -245 482 -273 537 -298 572 -10 16 -71 132 -134
258 -64 127 -132 259 -152 293 -20 35 -36 68 -36 72 0 5 -3 10 -7 12 -5 2 -17
19 -28 40 -44 79 -89 153 -97 156 -4 2 -8 8 -8 13 0 4 -19 36 -42 69 -24 34
-47 68 -53 77 -5 9 -19 27 -30 39 -32 35 -55 64 -50 64 5 0 -64 76 -147 161
-36 38 -71 69 -77 69 -6 0 -11 4 -11 8 0 5 -18 21 -40 38 -22 16 -53 39 -67
51 -15 12 -43 30 -62 40 -20 10 -38 21 -41 25 -6 8 -197 99 -215 103 -31 6
-71 19 -80 24 -5 3 -14 6 -20 8 -5 1 -21 5 -35 8 -14 4 -34 8 -45 10 -11 2
-20 4 -20 5 0 2 -33 9 -70 14 -16 3 -32 5 -35 6 -3 1 -15 1 -27 0 -13 -1 -23
2 -23 7 0 4 -17 8 -37 9 -21 0 -104 3 -185 6 -81 3 -149 4 -150 3z m232 -665
c8 -1 33 -7 55 -13 22 -5 51 -11 64 -13 62 -8 318 -127 351 -164 3 -3 31 -25
63 -49 70 -54 145 -134 198 -213 21 -33 39 -61 39 -63 0 -2 18 -31 40 -64 22
-33 40 -62 40 -65 0 -2 22 -40 48 -83 27 -43 89 -157 139 -253 50 -96 101
-195 114 -220 13 -25 23 -47 24 -50 0 -3 6 -14 12 -26 32 -56 113 -220 113
-227 0 -4 5 -13 10 -20 17 -20 70 -128 70 -142 0 -7 4 -15 8 -17 4 -1 53 -93
108 -203 54 -110 103 -203 107 -206 5 -3 8 -9 8 -13 -1 -3 25 -57 56 -119 347
-684 1023 -2057 1023 -2077 0 -6 5 -10 10 -10 6 0 10 -5 10 -11 0 -6 19 -50
42 -97 23 -48 41 -90 40 -94 -1 -5 3 -8 8 -8 6 0 10 -5 10 -10 0 -15 43 -105
52 -108 4 -2 8 -10 8 -18 0 -8 18 -50 39 -92 79 -155 121 -244 121 -258 0 -8
5 -14 10 -14 6 0 10 -4 10 -10 0 -10 35 -86 173 -380 24 -52 59 -126 77 -165
71 -153 114 -245 170 -360 78 -161 120 -255 113 -255 -3 0 -1 -6 5 -12 9 -12
96 -204 107 -238 8 -23 55 -131 67 -154 5 -10 11 -26 13 -35 2 -9 21 -57 43
-108 22 -50 37 -94 34 -97 -3 -3 0 -6 6 -6 7 0 12 -10 12 -23 0 -13 3 -27 7
-31 4 -3 8 -12 10 -19 1 -7 14 -55 27 -107 35 -132 44 -221 41 -395 -4 -201
-8 -225 -69 -445 -17 -62 -101 -245 -123 -268 -7 -7 -13 -18 -13 -23 0 -6 -11
-25 -25 -43 -14 -18 -25 -36 -25 -40 0 -4 -6 -13 -12 -21 -24 -24 -48 -55 -48
-61 0 -3 -11 -15 -25 -28 -14 -13 -25 -26 -25 -29 0 -14 -175 -177 -248 -232
-7 -5 -22 -18 -33 -28 -10 -9 -19 -15 -19 -12 0 2 -30 -15 -67 -39 -118 -76
-391 -195 -413 -181 -5 3 -11 1 -14 -4 -5 -8 -37 -16 -103 -27 -13 -2 -35 -6
-50 -9 -119 -23 -358 -23 -488 0 -16 3 -39 6 -50 8 -11 2 -27 6 -35 9 -8 3
-42 12 -75 19 -33 7 -64 15 -70 18 -5 3 -14 6 -20 7 -47 9 -256 97 -370 156
-33 18 -73 39 -90 47 -16 9 -32 19 -35 23 -3 4 -28 19 -55 34 -28 14 -52 29
-55 33 -3 3 -42 31 -87 61 -46 30 -83 58 -83 63 0 4 -5 7 -11 7 -14 0 -229
173 -301 242 -10 10 -20 18 -22 18 -21 0 -506 495 -506 516 0 12 87 127 101
132 5 2 9 10 9 18 0 8 4 14 8 14 4 0 15 12 24 28 9 15 28 41 42 57 33 38 35
40 76 100 18 28 36 52 40 55 3 3 17 23 30 45 13 22 29 45 36 50 6 6 59 82 116
170 147 225 178 274 178 285 0 6 5 10 10 10 6 0 10 4 10 9 0 6 28 59 63 118
34 60 69 122 77 138 8 17 20 38 28 47 8 9 11 21 8 27 -3 5 -2 11 3 13 9 3 101
188 139 278 13 30 32 73 42 95 18 41 110 287 114 308 2 7 6 19 9 27 27 64 92
342 112 475 28 185 33 505 10 615 -3 14 -7 41 -10 60 -5 38 -8 51 -25 125 -22
99 -118 357 -139 375 -3 3 -21 34 -40 70 -19 36 -37 67 -40 70 -3 3 -22 28
-41 55 -127 184 -336 376 -507 467 -24 12 -43 26 -43 30 0 4 -6 8 -14 8 -7 0
-34 11 -60 25 -26 14 -54 25 -62 25 -7 0 -14 5 -14 10 0 6 -3 9 -7 8 -5 0 -15
1 -23 5 -76 30 -190 61 -298 82 -13 2 -31 6 -40 9 -16 4 -89 14 -172 22 -49 5
-316 5 -365 0 -79 -8 -151 -18 -195 -27 -25 -6 -56 -11 -70 -13 -14 -2 -25 -5
-25 -6 0 -1 -7 -3 -15 -5 -8 -2 -29 -8 -47 -13 -17 -6 -34 -8 -37 -4 -3 3 -6
1 -6 -4 0 -5 -8 -10 -17 -11 -10 -1 -31 -7 -48 -14 -16 -7 -35 -13 -41 -14
-24 -6 -150 -66 -239 -115 -100 -55 -258 -181 -340 -269 -22 -24 -47 -51 -56
-60 -43 -44 -179 -241 -179 -260 0 -6 -4 -11 -9 -11 -5 0 -12 -10 -16 -22 -4
-13 -8 -25 -9 -28 -1 -3 -11 -23 -23 -45 -49 -94 -128 -327 -138 -405 -2 -14
-4 -25 -5 -25 -2 0 -4 -9 -5 -20 -2 -11 -6 -38 -9 -60 -11 -66 -14 -96 -20
-199 -4 -54 -9 -103 -12 -107 -3 -5 -1 -9 5 -9 6 0 6 -11 1 -30 -5 -16 -6 -30
-2 -30 4 0 7 -33 8 -73 1 -80 11 -182 25 -266 6 -31 12 -69 15 -86 3 -16 12
-55 20 -85 8 -30 16 -62 18 -70 2 -8 10 -35 17 -60 12 -42 14 -51 18 -65 0 -3
0 -6 -1 -7 -1 -2 4 -14 11 -26 7 -13 15 -36 17 -50 3 -15 8 -31 13 -37 4 -5
13 -28 20 -50 27 -87 139 -339 226 -510 79 -154 110 -211 170 -313 6 -9 25
-44 44 -77 59 -103 283 -445 307 -470 9 -8 12 -15 7 -15 -4 0 -3 -4 3 -8 5 -4
30 -36 55 -72 24 -36 46 -67 49 -70 3 -3 30 -39 60 -80 30 -41 57 -77 60 -80
3 -3 18 -23 34 -45 16 -22 34 -44 40 -50 6 -5 24 -28 39 -51 l28 -41 -78 -83
c-108 -115 -328 -334 -386 -384 -27 -22 -61 -52 -76 -66 -45 -41 -94 -83 -146
-125 -28 -22 -55 -44 -61 -50 -6 -5 -22 -17 -34 -25 -13 -8 -32 -23 -42 -33
-10 -9 -20 -17 -23 -17 -3 0 -25 -15 -49 -32 -80 -60 -98 -73 -124 -88 -15 -8
-32 -21 -40 -28 -7 -6 -20 -12 -28 -12 -8 0 -14 -4 -14 -9 0 -5 -10 -13 -22
-17 -13 -4 -25 -10 -28 -14 -7 -10 -234 -120 -248 -120 -7 0 -12 -5 -12 -10 0
-6 -3 -9 -7 -8 -10 3 -84 -22 -98 -32 -19 -14 -252 -77 -314 -85 -14 -2 -26
-4 -26 -5 0 -1 -18 -3 -40 -5 -22 -2 -65 -7 -95 -10 -65 -9 -340 -12 -340 -5
0 3 -23 7 -51 8 -28 1 -56 5 -62 9 -7 4 -18 8 -27 8 -45 4 -166 38 -202 56
-10 5 -22 9 -27 9 -13 0 -185 81 -191 90 -3 3 -20 13 -37 21 -18 8 -33 17 -33
21 0 5 -6 8 -12 8 -7 0 -24 9 -38 20 -14 11 -52 41 -85 67 -72 56 -189 172
-230 228 -17 22 -33 42 -36 45 -3 3 -28 39 -56 80 -62 94 -132 239 -169 350
-15 47 -30 92 -32 100 -3 8 -7 22 -8 30 -1 8 -5 26 -9 40 -3 14 -8 39 -11 55
-2 17 -7 46 -10 65 -4 19 -7 110 -9 201 -2 131 1 190 17 275 27 156 81 341
103 356 5 4 7 8 3 8 -6 0 6 31 51 135 12 26 23 57 26 70 2 6 18 44 38 85 19
41 71 156 115 255 82 185 118 265 179 395 33 71 55 117 143 305 21 44 48 103
60 130 13 28 50 106 83 175 34 69 61 130 62 136 0 6 8 22 18 37 9 14 17 29 17
31 0 3 23 54 52 113 28 60 52 110 53 113 1 3 24 52 53 109 29 58 52 109 52
113 0 5 7 16 15 25 8 8 13 19 10 24 -4 5 -1 9 4 9 6 0 11 5 11 11 0 6 38 89
85 185 47 96 85 176 85 179 0 3 16 34 35 70 19 35 35 71 35 79 0 8 3 16 8 18
7 3 46 75 48 87 1 13 29 66 37 72 5 3 9 10 9 15 -1 15 190 399 202 406 6 4 8
8 4 8 -3 0 74 162 173 361 98 198 179 364 179 370 0 5 5 9 12 9 6 0 8 3 5 7
-4 3 -3 11 2 17 5 6 167 326 361 711 193 385 356 705 360 710 5 6 11 22 15 38
4 15 11 27 16 27 5 0 9 9 9 19 0 11 3 21 8 23 4 2 31 49 60 105 108 210 212
396 224 404 5 3 10 10 10 15 2 19 91 145 146 204 182 199 404 319 642 347 25
3 46 6 48 7 2 3 235 -2 262 -4z m20 -3733 c14 -4 47 -9 74 -12 27 -3 53 -8 58
-11 5 -3 20 -7 34 -10 59 -11 176 -58 251 -102 92 -54 273 -219 273 -249 0 -7
4 -13 8 -13 11 0 103 -143 129 -200 67 -147 92 -278 88 -477 -1 -87 -5 -169
-8 -183 -3 -14 -8 -41 -11 -60 -8 -55 -26 -140 -42 -196 -8 -28 -16 -60 -18
-70 -21 -105 -148 -453 -213 -579 -8 -16 -35 -70 -59 -118 -54 -109 -158 -290
-241 -422 -71 -113 -64 -102 -138 -210 -112 -163 -155 -222 -220 -305 -36 -47
-77 -101 -90 -122 -13 -20 -29 -39 -34 -42 -5 -4 -29 18 -53 48 -121 152 -138
174 -138 184 0 6 -4 12 -9 14 -12 4 -171 226 -171 239 0 5 -3 9 -7 9 -5 0 -30
37 -58 81 -27 45 -56 87 -63 95 -7 8 -10 14 -5 14 4 0 3 4 -2 8 -11 7 -45 62
-109 172 -20 36 -41 72 -47 80 -5 8 -34 65 -64 125 -31 61 -60 114 -66 119 -5
6 -9 18 -9 27 0 9 -7 22 -15 29 -8 7 -15 18 -15 25 0 8 -10 35 -22 62 -12 26
-22 50 -23 53 -1 3 -9 23 -18 44 -22 50 -95 263 -101 296 -3 14 -14 59 -26
100 -11 41 -22 86 -25 100 -3 14 -7 36 -10 50 -57 260 -54 501 7 690 21 64 76
190 88 200 4 3 9 12 12 20 27 74 282 339 326 340 6 0 12 4 12 9 0 5 8 11 18
14 9 4 36 17 60 31 23 13 53 27 65 31 12 4 25 8 30 10 13 5 17 5 20 3 2 -2 11
3 20 10 9 8 21 11 27 7 5 -3 10 -1 10 4 0 6 3 10 8 9 6 -2 38 4 102 18 14 3
52 7 85 10 33 3 61 7 62 8 5 5 238 -2 263 -7z"/>
</g>
</svg>
