<svg width="16" height="16" viewBox="0 0 16 16" version="1.1" xmlns="http://www.w3.org/2000/svg" xmlns:xlink="http://www.w3.org/1999/xlink">
<title>search</title>
<desc>Created using Figma</desc>
<g id="Canvas" transform="translate(-8476 -827)">
<g id="search">
<g id="Shape" opacity="0.64">
<use xlink:href="#path0_fill" transform="translate(8476.15 827.147)" fill="#484848"/>
</g>
</g>
</g>
<defs>
<path id="path0_fill" fill-rule="evenodd" d="M 11.4837 10.9837L 15.1194 14.462C 15.3382 14.6707 15.2649 15.0185 15.0472 15.2272C 14.8284 15.4359 14.4651 15.4359 14.2474 15.2272L 10.6106 11.7489L 10.6106 11.6793C 9.30107 12.6533 7.55595 13.1402 5.73759 12.8619C 2.10185 12.3054 -0.444048 9.10541 0.0647411 5.55762C 0.646772 2.00977 4.06474 -0.424983 7.70146 0.0619553C 11.3382 0.618474 13.8831 3.81849 13.3743 7.36634C 13.1556 8.82715 12.5013 10.0098 11.4837 10.9837ZM 1.15654 5.69672C 0.720015 8.68805 2.90166 11.4011 5.95634 11.8185C 9.01103 12.2358 11.9202 10.1489 12.3567 7.22718C 12.7933 4.23584 10.6106 1.52283 7.55693 1.10541C 4.429 0.688054 1.59306 2.77503 1.15654 5.69672Z"/>
</defs>
</svg>
