<?xml version="1.0" encoding="UTF-8" standalone="no"?>
<svg
   xmlns:dc="http://purl.org/dc/elements/1.1/"
   xmlns:cc="http://creativecommons.org/ns#"
   xmlns:rdf="http://www.w3.org/1999/02/22-rdf-syntax-ns#"
   xmlns:svg="http://www.w3.org/2000/svg"
   xmlns="http://www.w3.org/2000/svg"
   xmlns:xlink="http://www.w3.org/1999/xlink"
   xmlns:sodipodi="http://sodipodi.sourceforge.net/DTD/sodipodi-0.dtd"
   xmlns:inkscape="http://www.inkscape.org/namespaces/inkscape"
   width="6"
   height="10"
   viewBox="0 0 6 10"
   version="1.1"
   id="svg4211"
   inkscape:version="0.91 r13725"
   sodipodi:docname="rightArrow.svg">
  <metadata
     id="metadata4226">
    <rdf:RDF>
      <cc:Work
         rdf:about="">
        <dc:format>image/svg+xml</dc:format>
        <dc:type
           rdf:resource="http://purl.org/dc/dcmitype/StillImage" />
        <dc:title>Shape</dc:title>
      </cc:Work>
    </rdf:RDF>
  </metadata>
  <sodipodi:namedview
     pagecolor="#ffffff"
     bordercolor="#666666"
     borderopacity="1"
     objecttolerance="10"
     gridtolerance="10"
     guidetolerance="10"
     inkscape:pageopacity="0"
     inkscape:pageshadow="2"
     inkscape:window-width="1918"
     inkscape:window-height="1176"
     id="namedview4224"
     showgrid="false"
     inkscape:zoom="94.5"
     inkscape:cx="3"
     inkscape:cy="5"
     inkscape:window-x="0"
     inkscape:window-y="22"
     inkscape:window-maximized="0"
     inkscape:current-layer="svg4211" />
  <title
     id="title4213">Shape</title>
  <desc
     id="desc4215">Created using Figma</desc>
  <g
     id="Canvas"
     transform="translate(-4586.5531,-247)">
    <g
       id="Shape">
      <use
         xlink:href="#path0_fill"
         transform="translate(4587,247)"
         id="use4219"
         style="fill:#008489"
         x="0"
         y="0"
         width="100%"
         height="100%" />
    </g>
  </g>
  <defs
     id="defs4221">
    <path
       id="path0_fill"
       d="M 0.162625 0.948459C 0.0222992 0.808033 -0.0324514 0.603412 0.0189974 0.411674C 0.0704463 0.219935 0.220278 0.070209 0.412053 0.0188958C 0.603828 -0.0324175 0.80841 0.0224778 0.948736 0.162903L 5.3904 4.60735C 5.60728 4.82429 5.60728 5.17596 5.3904 5.3929L 0.948736 9.83735C 0.80841 9.97777 0.603828 10.0327 0.412053 9.98135C 0.220278 9.93004 0.0704463 9.78032 0.0189974 9.58858C -0.0324514 9.39684 0.0222992 9.19222 0.162625 9.05179L 4.21263 5.00013L 0.162625 0.948459Z" />
  </defs>
</svg>
