<?xml version="1.0" encoding="UTF-8" standalone="no"?>
<svg
   xmlns:dc="http://purl.org/dc/elements/1.1/"
   xmlns:cc="http://creativecommons.org/ns#"
   xmlns:rdf="http://www.w3.org/1999/02/22-rdf-syntax-ns#"
   xmlns:svg="http://www.w3.org/2000/svg"
   xmlns="http://www.w3.org/2000/svg"
   xmlns:xlink="http://www.w3.org/1999/xlink"
   xmlns:sodipodi="http://sodipodi.sourceforge.net/DTD/sodipodi-0.dtd"
   xmlns:inkscape="http://www.inkscape.org/namespaces/inkscape"
   width="12"
   height="13"
   viewBox="0 0 12 13"
   version="1.1"
   id="svg4226"
   inkscape:version="0.91 r13725"
   sodipodi:docname="starEmpty.svg">
  <metadata
     id="metadata4241">
    <rdf:RDF>
      <cc:Work
         rdf:about="">
        <dc:format>image/svg+xml</dc:format>
        <dc:type
           rdf:resource="http://purl.org/dc/dcmitype/StillImage" />
        <dc:title>Shape Copy 4</dc:title>
      </cc:Work>
    </rdf:RDF>
  </metadata>
  <sodipodi:namedview
     pagecolor="#ffffff"
     bordercolor="#666666"
     borderopacity="1"
     objecttolerance="10"
     gridtolerance="10"
     guidetolerance="10"
     inkscape:pageopacity="0"
     inkscape:pageshadow="2"
     inkscape:window-width="1918"
     inkscape:window-height="1176"
     id="namedview4239"
     showgrid="false"
     inkscape:zoom="72.692308"
     inkscape:cx="6"
     inkscape:cy="6.5"
     inkscape:window-x="0"
     inkscape:window-y="22"
     inkscape:window-maximized="0"
     inkscape:current-layer="Shape Copy 4" />
  <title
     id="title4228">Shape Copy 4</title>
  <desc
     id="desc4230">Created using Figma</desc>
  <g
     id="Canvas"
     transform="translate(-303 46)">
    <g
       id="Shape Copy 4">
      <use
         xlink:href="#path0_fill"
         transform="translate(303 -46)"
         fill="#008489"
         id="use4234"
         style="fill:#e6e6e6" />
    </g>
  </g>
  <defs
     id="defs4236">
    <path
       id="path0_fill"
       d="M 11.9519 4.5057C 12.0653 4.85898 11.9771 5.13657 11.6998 5.35107L 8.84996 7.52253L 9.94653 11.0567C 10.0852 11.5488 9.71965 12.003 9.2659 12.003C 9.11465 12.003 8.976 11.9525 8.84996 11.8516L 6.00015 9.68138L 3.15033 11.8528C 2.83523 12.0673 2.40668 12.0043 2.1672 11.7014C 2.01595 11.4996 1.97814 11.2851 2.06637 11.0579L 3.15033 7.54903L 0.287913 5.35107C 0.0232244 5.13657 -0.0650052 4.85898 0.0484328 4.5057C 0.149267 4.20288 0.413955 4.001 0.703852 4.001L 4.23429 4.001L 5.33086 0.492081C 5.41909 0.201879 5.68378 0 5.98628 0C 6.30139 0 6.57868 0.214497 6.66691 0.517316L 7.76348 4.001L 11.2939 4.001C 11.5863 4.001 11.851 4.20288 11.9519 4.5057Z" />
  </defs>
</svg>
