<svg width="12" height="13" viewBox="0 0 12 13" version="1.1" xmlns="http://www.w3.org/2000/svg" xmlns:xlink="http://www.w3.org/1999/xlink">
<title>Shape Copy 4</title>
<desc>Created using Figma</desc>
<g id="Canvas" transform="translate(-303 46)">
<g id="Shape Copy 4">
<use xlink:href="#path0_fill" transform="translate(303 -46)" fill="#008489"/>
</g>
</g>
<defs>
<path id="path0_fill" d="M 11.9519 4.5057C 12.0653 4.85898 11.9771 5.13657 11.6998 5.35107L 8.84996 7.52253L 9.94653 11.0567C 10.0852 11.5488 9.71965 12.003 9.2659 12.003C 9.11465 12.003 8.976 11.9525 8.84996 11.8516L 6.00015 9.68138L 3.15033 11.8528C 2.83523 12.0673 2.40668 12.0043 2.1672 11.7014C 2.01595 11.4996 1.97814 11.2851 2.06637 11.0579L 3.15033 7.54903L 0.287913 5.35107C 0.0232244 5.13657 -0.0650052 4.85898 0.0484328 4.5057C 0.149267 4.20288 0.413955 4.001 0.703852 4.001L 4.23429 4.001L 5.33086 0.492081C 5.41909 0.201879 5.68378 0 5.98628 0C 6.30139 0 6.57868 0.214497 6.66691 0.517316L 7.76348 4.001L 11.2939 4.001C 11.5863 4.001 11.851 4.20288 11.9519 4.5057Z"/>
</defs>
</svg>
