<svg width="20" height="17" viewBox="0 0 20 17" version="1.1" xmlns="http://www.w3.org/2000/svg" xmlns:xlink="http://www.w3.org/1999/xlink">
<title>bathtub</title>
<desc>Created using Figma</desc>
<g id="Canvas" transform="translate(-8254 351)">
<g id="bathtub">
<g id="Shape">
<use xlink:href="#path0_fill" transform="translate(8254 -350.959)"/>
</g>
<g id="Shape">
<use xlink:href="#path1_fill" transform="translate(8265.75 -347.863)"/>
</g>
<g id="Shape">
<use xlink:href="#path2_fill" transform="translate(8266.78 -347.194)"/>
</g>
<g id="Shape">
<use xlink:href="#path3_fill" transform="translate(8265.04 -348.526)"/>
</g>
</g>
</g>
<defs>
<path id="path0_fill" fill-rule="evenodd" d="M 18.8223 6.41623C 19.147 6.41623 19.4316 6.53809 19.6143 6.76141C 19.8374 6.96448 19.9595 7.24872 19.9595 7.57361C 19.9595 7.89847 19.8174 8.18274 19.6143 8.38577C 19.4995 8.51193 19.3589 8.60571 19.1997 8.66342C 19.1294 8.68893 19.0557 8.7074 18.9785 8.71851C 18.9214 8.72678 18.8623 8.73096 18.8022 8.73096L 18.5381 8.73096L 18.1118 12.934C 18.0508 13.5025 17.8071 14.0305 17.4414 14.3959C 17.0762 14.7614 16.6094 14.9848 16.0405 14.9848C 15.939 14.9848 15.8374 15.0254 15.7563 15.1066C 15.7393 15.1195 15.7241 15.1342 15.7104 15.1505C 15.6973 15.166 15.686 15.183 15.6768 15.2013C 15.6484 15.2547 15.6343 15.3193 15.6343 15.3909C 15.6343 15.4678 15.6504 15.5285 15.6777 15.5833L 15.6982 15.6203C 15.71 15.6389 15.7222 15.657 15.7358 15.6751L 15.7563 15.6954C 15.8174 15.7766 15.9189 15.8173 16.0405 15.8173C 16.0889 15.8173 16.1353 15.8297 16.1768 15.8515C 16.2749 15.9032 16.3452 16.0075 16.3452 16.1218C 16.3452 16.2843 16.2231 16.4264 16.0405 16.4264C 15.9106 16.4264 15.7847 16.4009 15.6689 16.3557C 15.5317 16.3022 15.4087 16.221 15.3096 16.1218L 15.2896 16.1015C 15.1831 15.9951 15.104 15.868 15.0566 15.7242C 15.0225 15.6212 15.0049 15.5096 15.0049 15.3909C 15.0049 15.341 15.0073 15.2912 15.0132 15.2422C 15.0244 15.1516 15.0469 15.0639 15.0864 14.9848L 4.87305 14.9848L 4.8916 15.0428L 4.91113 15.1096C 4.93555 15.1992 4.9541 15.295 4.9541 15.3909C 4.9541 15.6751 4.83252 15.9391 4.6499 16.1218C 4.4668 16.3046 4.20312 16.4264 3.91895 16.4264C 3.854 16.4264 3.79248 16.4038 3.7417 16.3662C 3.66553 16.3097 3.61426 16.2195 3.61426 16.1218C 3.61426 15.9594 3.73584 15.8173 3.91895 15.8173C 4.02051 15.8173 4.12207 15.7766 4.20312 15.6954C 4.28418 15.6345 4.32471 15.533 4.32471 15.4112C 4.32471 15.3096 4.28418 15.2081 4.20312 15.1269C 4.14209 15.0457 4.04053 15.0051 3.91895 15.0051C 3.37061 15.0051 2.8833 14.7817 2.51758 14.4162C 2.15234 14.0508 1.90869 13.5229 1.84766 12.9543L 1.42139 8.75128L 1.15723 8.75128C 0.83252 8.75128 0.54834 8.60913 0.345215 8.4061C 0.12207 8.20303 0 7.91879 0 7.5939C 0 7.26904 0.14209 6.98477 0.345215 6.78174C 0.54834 6.55838 0.83252 6.43655 1.15723 6.43655L 17.8682 6.43655L 17.8682 0.629456L 16.4468 0.629456L 15.939 0.893402L 16 0.954315C 16.0361 0.996246 16.0669 1.03995 16.0923 1.0849C 16.1528 1.19232 16.1826 1.30682 16.1826 1.42133C 16.1826 1.58377 16.1221 1.74619 16.0205 1.88834L 16 1.90863L 15.0459 3.28934C 15.0356 3.29968 15.0254 3.31528 15.0151 3.33078C 15.0049 3.34573 14.9946 3.3606 14.9849 3.37054C 14.8833 3.47208 14.7207 3.53299 14.5586 3.53299C 14.4556 3.53299 14.353 3.51184 14.2583 3.46951C 14.2217 3.45319 14.186 3.43375 14.1523 3.41116C 14.1118 3.39087 14.0913 3.37054 14.0508 3.32996L 12.873 2.13199C 12.853 2.09137 12.812 2.07108 12.792 2.03046C 12.7104 1.90863 12.6699 1.76651 12.6699 1.62436C 12.6699 1.56958 12.6768 1.51712 12.6904 1.46698C 12.7178 1.36838 12.772 1.27872 12.853 1.19797C 12.873 1.17767 12.8936 1.15735 12.9341 1.13705L 14.335 0.182739C 14.3994 0.145813 14.4683 0.113098 14.5391 0.0883789C 14.6245 0.0587463 14.7134 0.0406189 14.8022 0.0406189C 14.9409 0.0406189 15.0679 0.0640259 15.1743 0.137543C 15.208 0.160828 15.2397 0.189148 15.269 0.223358L 15.4722 0.426392L 16.2031 0.0406189C 16.2163 0.0340576 16.2314 0.0275269 16.248 0.0216675C 16.2637 0.0161438 16.2803 0.0112305 16.2979 0.00747681C 16.3198 0.00283813 16.3428 0 16.3657 0L 18.1929 0C 18.293 0 18.3857 0.0463867 18.4419 0.124817C 18.4766 0.173523 18.4976 0.234589 18.4976 0.304565L 18.4976 6.41623L 18.8223 6.41623ZM 15.5332 1.52286C 15.5537 1.48224 15.5737 1.46194 15.5737 1.46194L 15.5737 1.44165L 14.8428 0.690369L 14.8228 0.690369C 14.814 0.690369 14.8018 0.693939 14.7876 0.699585L 14.7515 0.716095L 14.7212 0.730988L 13.3403 1.66498L 13.3452 1.67053L 13.3516 1.67892C 13.3564 1.68637 13.3608 1.69598 13.3608 1.7056L 14.5381 2.88327C 14.5381 2.90356 14.5586 2.90356 14.5791 2.90356L 15.5127 1.54315C 15.5215 1.54315 15.5269 1.53922 15.5298 1.53482C 15.5332 1.52921 15.5332 1.52286 15.5332 1.52286ZM 17.5024 12.8528C 17.4619 13.2792 17.2793 13.665 17.0151 13.9289C 16.7715 14.1726 16.4263 14.335 16.061 14.335L 3.91895 14.335C 3.5332 14.335 3.20801 14.1726 2.96436 13.9289C 2.68018 13.665 2.51758 13.2792 2.47705 12.8528L 2.05078 8.71066L 17.9492 8.71066L 17.5024 12.8528ZM 18.8223 8.10153C 18.9644 8.10153 19.0864 8.04062 19.188 7.93909C 19.2891 7.83755 19.3501 7.71573 19.3501 7.57361C 19.3501 7.43146 19.2891 7.28934 19.208 7.20813C 19.1064 7.1066 18.9849 7.04568 18.8428 7.04568L 18.1929 7.04568L 1.15723 7.04568C 1.01514 7.04568 0.893555 7.1066 0.791992 7.20813C 0.69043 7.28934 0.629395 7.43146 0.629395 7.57361C 0.629395 7.71573 0.710449 7.83755 0.791992 7.93909C 0.873047 8.04062 1.01514 8.10153 1.15723 8.10153L 1.68506 8.10153L 18.2944 8.10153L 18.8223 8.10153Z"/>
<path id="path1_fill" d="M 1.26904 0.0913706C 1.14721 -0.0304568 0.944162 -0.0304568 0.822335 0.0913706L 0.0913706 0.80203C -0.0304568 0.923858 -0.0304568 1.1269 0.0913706 1.24873C 0.213198 1.37056 0.416244 1.37056 0.538071 1.24873L 1.26904 0.538071C 1.39086 0.416244 1.39086 0.213198 1.26904 0.0913706Z"/>
<path id="path2_fill" d="M 0.783131 0.0318623C 0.620695 -0.049356 0.437954 0.0318623 0.37704 0.194299L 0.0318623 0.965872C -0.049356 1.108 0.0318623 1.29075 0.194299 1.37196C 0.356735 1.45318 0.539477 1.37196 0.60039 1.20953L 0.945568 0.437954C 1.02679 0.275517 0.945568 0.092776 0.783131 0.0318623Z"/>
<path id="path3_fill" d="M 1.36327 0.185607C 1.30236 0.0231702 1.09931 -0.0377435 0.95718 0.0231702L 0.185607 0.368348C 0.0231702 0.429262 -0.0377435 0.632307 0.0231702 0.774439C 0.084084 0.936876 0.28713 0.99779 0.429262 0.936876L 1.20084 0.591698C 1.36327 0.530784 1.42419 0.327739 1.36327 0.185607Z"/>
</defs>
</svg>
