<svg width="22" height="20" viewBox="0 0 22 20" version="1.1" xmlns="http://www.w3.org/2000/svg" xmlns:xlink="http://www.w3.org/1999/xlink">
<title>bed</title>
<desc>Created using Figma</desc>
<g id="Canvas" transform="translate(-8151 353)">
<g id="bed">
<g id="Shape">
<use xlink:href="#path0_fill" transform="translate(8152 -351.987)"/>
<use xlink:href="#path1_stroke" transform="translate(8152 -351.987)" fill="#FFFFFF"/>
</g>
</g>
</g>
<defs>
<path id="path0_fill" fill-rule="evenodd" d="M 19.9419 12.3533C 19.9702 12.4448 19.9595 12.5355 19.9287 12.6178C 19.9487 12.706 19.9609 12.7967 19.9609 12.8914L 19.9609 16.2183L 19.9609 17.8817C 19.9609 17.9902 19.9194 18.089 19.8516 18.1631C 19.8159 18.2015 19.7734 18.2333 19.7261 18.2563C 19.6714 18.2827 19.6104 18.2976 19.5454 18.2976L 17.8818 18.2976C 17.6523 18.2976 17.4658 18.1113 17.4658 17.8817L 17.4658 16.6342L 2.49512 16.6342L 2.49512 17.8817C 2.49512 18.1113 2.30859 18.2976 2.0791 18.2976L 0.416016 18.2976C 0.186523 18.2976 0 18.1113 0 17.8817L 0 16.2183L 0 12.8914C 0 12.7967 0.0126953 12.706 0.0322266 12.6178C 0.00146484 12.5347 -0.00927734 12.444 0.019043 12.3533L 1.66357 7.00964L 1.66357 2.07925C 1.66357 0.933167 2.5957 0 3.74268 0L 16.2183 0C 17.3652 0 18.2974 0.933167 18.2974 2.07925L 18.2974 7.00958L 19.9419 12.3533ZM 3.74268 0.831696C 3.05469 0.831696 2.49512 1.39142 2.49512 2.07925L 2.49512 6.65366L 3.62549 6.65366L 4.01318 5.10416C 4.15283 4.54858 4.65088 4.15933 5.22412 4.15933L 7.90137 4.15933C 8.58887 4.15933 9.14893 4.71906 9.14893 5.40689L 9.14893 6.65366L 10.812 6.65366L 10.812 5.40607C 10.812 4.71823 11.3721 4.15851 12.0596 4.15851L 14.7368 4.15851C 15.3101 4.15851 15.8081 4.54694 15.9482 5.10336L 16.3354 6.65366L 17.4658 6.65366L 17.4658 2.07925C 17.4658 1.39142 16.9062 0.831696 16.2183 0.831696L 3.74268 0.831696ZM 15.4814 7.32565C 15.4019 7.42712 15.2817 7.48532 15.1528 7.48532L 12.0601 7.48532C 11.8311 7.48532 11.644 7.29901 11.644 7.06946L 11.644 5.40607C 11.644 5.17651 11.8311 4.9902 12.0601 4.9902L 14.7378 4.9902C 14.9292 4.9902 15.0947 5.11914 15.1416 5.3046L 15.5571 6.96802C 15.5889 7.0936 15.5615 7.22333 15.4814 7.32565ZM 8.31787 7.06534L 8.31787 5.4061C 8.31787 5.17654 8.13086 4.99023 7.90234 4.99026L 5.2251 4.99026C 5.03271 4.99026 4.86719 5.12003 4.8208 5.30466L 4.40479 6.96808C 4.37354 7.09283 4.40088 7.22339 4.48047 7.32571C 4.56055 7.42719 4.6792 7.48538 4.80908 7.48538L 7.90234 7.48538C 8.13037 7.48538 8.31641 7.29993 8.31738 7.06952L 8.31787 7.06534ZM 2.38623 7.48535L 3.63818 7.48535C 3.68213 7.61011 3.73975 7.72989 3.82373 7.83798C 4.06299 8.1424 4.42139 8.31705 4.80811 8.31705L 7.90137 8.31705C 8.44287 8.31705 8.90039 7.96774 9.07227 7.48535L 10.8887 7.48535C 11.061 7.9686 11.5186 8.31705 12.0601 8.31705L 15.1533 8.31705C 15.54 8.31705 15.8975 8.1424 16.1372 7.83798C 16.2212 7.73068 16.2783 7.61011 16.3223 7.48535L 17.5752 7.48535L 18.8594 11.6589C 18.811 11.6531 18.7637 11.6439 18.7139 11.6439L 1.24756 11.6439C 1.19775 11.6439 1.15039 11.6531 1.10303 11.6589L 2.38623 7.48535ZM 0.831543 17.4659L 1.66309 17.4659L 1.66309 16.6342L 0.831543 16.6342L 0.831543 17.4659ZM 18.2979 17.4659L 18.2979 16.6342L 19.1294 16.6342L 19.1294 17.4659L 18.2979 17.4659ZM 0.831543 15.8025L 19.1294 15.8025L 19.1294 12.8914C 19.1294 12.6619 18.9419 12.4756 18.7134 12.4756L 1.24756 12.4756C 1.01855 12.4756 0.831543 12.6619 0.831543 12.8914L 0.831543 15.8025Z"/>
<path id="path1_stroke" d="M 19.9287 12.6178L 19.835 12.5828L 19.8246 12.6108L 19.8312 12.64L 19.9287 12.6178ZM 19.9419 12.3533L 19.8463 12.3827L 19.8464 12.3829L 19.9419 12.3533ZM 19.8516 18.1631L 19.9249 18.2311L 19.9253 18.2306L 19.8516 18.1631ZM 19.7261 18.2563L 19.7696 18.3464L 19.7697 18.3463L 19.7261 18.2563ZM 17.4658 16.6342L 17.5658 16.6342L 17.5658 16.5342L 17.4658 16.5342L 17.4658 16.6342ZM 2.49512 16.6342L 2.49512 16.5342L 2.39512 16.5342L 2.39512 16.6342L 2.49512 16.6342ZM 0.0322266 12.6178L 0.12986 12.6395L 0.136223 12.6107L 0.126016 12.5831L 0.0322266 12.6178ZM 0.019043 12.3533L 0.114493 12.3832L 0.114619 12.3827L 0.019043 12.3533ZM 1.66357 7.00964L 1.75915 7.03906L 1.76357 7.02468L 1.76357 7.00964L 1.66357 7.00964ZM 18.2974 7.00958L 18.1974 7.00958L 18.1974 7.02462L 18.2018 7.039L 18.2974 7.00958ZM 2.49512 6.65366L 2.39512 6.65366L 2.39512 6.75366L 2.49512 6.75366L 2.49512 6.65366ZM 3.62549 6.65366L 3.62549 6.75366L 3.70355 6.75366L 3.7225 6.67793L 3.62549 6.65366ZM 4.01318 5.10416L 3.9162 5.07978L 3.91617 5.07988L 4.01318 5.10416ZM 9.14893 6.65366L 9.04893 6.65366L 9.04893 6.75366L 9.14893 6.75366L 9.14893 6.65366ZM 10.812 6.65366L 10.812 6.75366L 10.912 6.75366L 10.912 6.65366L 10.812 6.65366ZM 15.9482 5.10336L 16.0453 5.07913L 16.0452 5.07894L 15.9482 5.10336ZM 16.3354 6.65366L 16.2384 6.67789L 16.2574 6.75366L 16.3354 6.75366L 16.3354 6.65366ZM 17.4658 6.65366L 17.4658 6.75366L 17.5658 6.75366L 17.5658 6.65366L 17.4658 6.65366ZM 15.4814 7.32565L 15.5601 7.38737L 15.5602 7.38728L 15.4814 7.32565ZM 15.1416 5.3046L 15.2386 5.28036L 15.2386 5.28009L 15.1416 5.3046ZM 15.5571 6.96802L 15.4601 6.99225L 15.4602 6.99252L 15.5571 6.96802ZM 8.31787 7.06534L 8.41787 7.07702L 8.41787 7.06534L 8.31787 7.06534ZM 7.90234 4.99026L 7.90234 5.09026L 7.90236 5.09026L 7.90234 4.99026ZM 4.8208 5.30466L 4.72381 5.28029L 4.72379 5.28039L 4.8208 5.30466ZM 4.40479 6.96808L 4.50179 6.99238L 4.5018 6.99234L 4.40479 6.96808ZM 4.48047 7.32571L 4.40153 7.38711L 4.40197 7.38766L 4.48047 7.32571ZM 8.31738 7.06952L 8.21743 7.05785L 8.21738 7.0691L 8.31738 7.06952ZM 3.63818 7.48535L 3.7325 7.45213L 3.70898 7.38535L 3.63818 7.38535L 3.63818 7.48535ZM 2.38623 7.48535L 2.38623 7.38535L 2.31236 7.38535L 2.29065 7.45596L 2.38623 7.48535ZM 3.82373 7.83798L 3.74476 7.89934L 3.74511 7.89978L 3.82373 7.83798ZM 9.07227 7.48535L 9.07227 7.38535L 9.00174 7.38535L 8.97807 7.45179L 9.07227 7.48535ZM 10.8887 7.48535L 10.9829 7.45176L 10.9592 7.38535L 10.8887 7.38535L 10.8887 7.48535ZM 16.1372 7.83798L 16.2158 7.89985L 16.216 7.89962L 16.1372 7.83798ZM 16.3223 7.48535L 16.3223 7.38535L 16.2515 7.38535L 16.2279 7.45213L 16.3223 7.48535ZM 17.5752 7.48535L 17.6708 7.45594L 17.6491 7.38535L 17.5752 7.38535L 17.5752 7.48535ZM 18.8594 11.6589L 18.8475 11.7582L 19.0002 11.7765L 18.955 11.6295L 18.8594 11.6589ZM 1.10303 11.6589L 1.00744 11.6295L 0.962128 11.7769L 1.11518 11.7581L 1.10303 11.6589ZM 1.66309 17.4659L 1.66309 17.5659L 1.76309 17.5659L 1.76309 17.4659L 1.66309 17.4659ZM 0.831543 17.4659L 0.731543 17.4659L 0.731543 17.5659L 0.831543 17.5659L 0.831543 17.4659ZM 1.66309 16.6342L 1.76309 16.6342L 1.76309 16.5342L 1.66309 16.5342L 1.66309 16.6342ZM 0.831543 16.6342L 0.831543 16.5342L 0.731543 16.5342L 0.731543 16.6342L 0.831543 16.6342ZM 18.2979 16.6342L 18.2979 16.5342L 18.1979 16.5342L 18.1979 16.6342L 18.2979 16.6342ZM 18.2979 17.4659L 18.1979 17.4659L 18.1979 17.5659L 18.2979 17.5659L 18.2979 17.4659ZM 19.1294 16.6342L 19.2294 16.6342L 19.2294 16.5342L 19.1294 16.5342L 19.1294 16.6342ZM 19.1294 17.4659L 19.1294 17.5659L 19.2294 17.5659L 19.2294 17.4659L 19.1294 17.4659ZM 19.1294 15.8025L 19.1294 15.9025L 19.2294 15.9025L 19.2294 15.8025L 19.1294 15.8025ZM 0.831543 15.8025L 0.731543 15.8025L 0.731543 15.9025L 0.831543 15.9025L 0.831543 15.8025ZM 20.0224 12.6528C 20.0567 12.559 20.0698 12.4357 20.0374 12.3238L 19.8464 12.3829C 19.8706 12.4539 19.8623 12.5119 19.835 12.5828L 20.0224 12.6528ZM 20.0609 12.8914C 20.0607 12.79 20.0471 12.6882 20.0262 12.5957L 19.8312 12.64C 19.8503 12.7238 19.8612 12.8033 19.8609 12.8914L 20.0609 12.8914ZM 20.0609 16.2183L 20.0609 12.8914L 19.8609 12.8914L 19.8609 16.2183L 20.0609 16.2183ZM 20.0609 17.8817L 20.0609 16.2183L 19.8609 16.2183L 19.8609 17.8817L 20.0609 17.8817ZM 19.9253 18.2306C 20.0036 18.143 20.059 18.01 20.0609 17.8817L 19.8609 17.8817C 19.8629 17.9705 19.8352 18.0351 19.7778 18.0955L 19.9253 18.2306ZM 19.7697 18.3463C 19.8255 18.3187 19.8828 18.2759 19.9249 18.2311L 19.7782 18.0951C 19.749 18.1272 19.7214 18.1479 19.6824 18.1663L 19.7697 18.3463ZM 19.5454 18.3976C 19.6222 18.3969 19.7051 18.3769 19.7696 18.3464L 19.6826 18.1663C 19.6376 18.1886 19.5985 18.1983 19.5454 18.1976L 19.5454 18.3976ZM 17.8818 18.3976L 19.5454 18.3976L 19.5454 18.1976L 17.8818 18.1976L 17.8818 18.3976ZM 17.3658 17.8817C 17.3658 18.1666 17.5972 18.3976 17.8818 18.3976L 17.8818 18.1976C 17.7075 18.1976 17.5658 18.056 17.5658 17.8817L 17.3658 17.8817ZM 17.3658 16.6342L 17.3658 17.8817L 17.5658 17.8817L 17.5658 16.6342L 17.3658 16.6342ZM 2.49512 16.7342L 17.4658 16.7342L 17.4658 16.5342L 2.49512 16.5342L 2.49512 16.7342ZM 2.59512 17.8817L 2.59512 16.6342L 2.39512 16.6342L 2.39512 17.8817L 2.59512 17.8817ZM 2.0791 18.3976C 2.36377 18.3976 2.59512 18.1666 2.59512 17.8817L 2.39512 17.8817C 2.39512 18.056 2.25342 18.1976 2.0791 18.1976L 2.0791 18.3976ZM 0.416016 18.3976L 2.0791 18.3976L 2.0791 18.1976L 0.416016 18.1976L 0.416016 18.3976ZM -0.1 17.8817C -0.1 18.1666 0.131352 18.3976 0.416016 18.3976L 0.416016 18.1976C 0.241695 18.1976 0.1 18.056 0.1 17.8817L -0.1 17.8817ZM -0.1 16.2183L -0.1 17.8817L 0.1 17.8817L 0.1 16.2183L -0.1 16.2183ZM -0.1 12.8914L -0.1 16.2183L 0.1 16.2183L 0.1 12.8914L -0.1 12.8914ZM -0.0654064 12.5962C -0.0857147 12.6882 -0.0997582 12.7897 -0.1 12.8914L 0.1 12.8914C 0.0997582 12.8036 0.111105 12.7238 0.12986 12.6395L -0.0654064 12.5962ZM -0.0764062 12.3235C -0.10885 12.4347 -0.0957611 12.5581 -0.0615624 12.6525L 0.126016 12.5831C 0.0986907 12.5113 0.0902954 12.4532 0.114492 12.3832L -0.0764062 12.3235ZM 1.568 6.98023L -0.0765333 12.3239L 0.114619 12.3827L 1.75915 7.03906L 1.568 6.98023ZM 1.56357 2.07925L 1.56357 7.00964L 1.76357 7.00964L 1.76357 2.07925L 1.56357 2.07925ZM 3.74268 -0.1C 2.54044 -0.1 1.56357 0.877975 1.56357 2.07925L 1.76357 2.07925C 1.76357 0.988358 2.65097 0.1 3.74268 0.1L 3.74268 -0.1ZM 16.2183 -0.1L 3.74268 -0.1L 3.74268 0.1L 16.2183 0.1L 16.2183 -0.1ZM 18.3974 2.07925C 18.3974 0.877975 17.4205 -0.1 16.2183 -0.1L 16.2183 0.1C 17.31 0.1 18.1974 0.988358 18.1974 2.07925L 18.3974 2.07925ZM 18.3974 7.00958L 18.3974 2.07925L 18.1974 2.07925L 18.1974 7.00958L 18.3974 7.00958ZM 20.0375 12.3239L 18.3929 6.98017L 18.2018 7.039L 19.8463 12.3827L 20.0375 12.3239ZM 2.59512 2.07925C 2.59512 1.44664 3.10992 0.931696 3.74268 0.931696L 3.74268 0.731696C 2.99945 0.731696 2.39512 1.3362 2.39512 2.07925L 2.59512 2.07925ZM 2.59512 6.65366L 2.59512 2.07925L 2.39512 2.07925L 2.39512 6.65366L 2.59512 6.65366ZM 3.62549 6.55366L 2.49512 6.55366L 2.49512 6.75366L 3.62549 6.75366L 3.62549 6.55366ZM 3.91617 5.07988L 3.52848 6.62938L 3.7225 6.67793L 4.11019 5.12843L 3.91617 5.07988ZM 5.22412 4.05933C 4.60495 4.05933 4.067 4.47984 3.9162 5.07978L 4.11017 5.12853C 4.23866 4.61733 4.69681 4.25933 5.22412 4.25933L 5.22412 4.05933ZM 7.90137 4.05933L 5.22412 4.05933L 5.22412 4.25933L 7.90137 4.25933L 7.90137 4.05933ZM 9.24893 5.40689C 9.24893 4.66381 8.64408 4.05933 7.90137 4.05933L 7.90137 4.25933C 8.53366 4.25933 9.04893 4.7743 9.04893 5.40689L 9.24893 5.40689ZM 9.24893 6.65366L 9.24893 5.40689L 9.04893 5.40689L 9.04893 6.65366L 9.24893 6.65366ZM 10.812 6.55366L 9.14893 6.55366L 9.14893 6.75366L 10.812 6.75366L 10.812 6.55366ZM 10.712 5.40607L 10.712 6.65366L 10.912 6.65366L 10.912 5.40607L 10.712 5.40607ZM 12.0596 4.05851C 11.3169 4.05851 10.712 4.66299 10.712 5.40607L 10.912 5.40607C 10.912 4.77348 11.4273 4.25851 12.0596 4.25851L 12.0596 4.05851ZM 14.7368 4.05851L 12.0596 4.05851L 12.0596 4.25851L 14.7368 4.25851L 14.7368 4.05851ZM 16.0452 5.07894C 15.8939 4.47814 15.3559 4.05851 14.7368 4.05851L 14.7368 4.25851C 15.2642 4.25851 15.7223 4.61574 15.8513 5.12779L 16.0452 5.07894ZM 16.4325 6.62942L 16.0453 5.07913L 15.8512 5.12759L 16.2384 6.67789L 16.4325 6.62942ZM 17.4658 6.55366L 16.3354 6.55366L 16.3354 6.75366L 17.4658 6.75366L 17.4658 6.55366ZM 17.3658 2.07925L 17.3658 6.65366L 17.5658 6.65366L 17.5658 2.07925L 17.3658 2.07925ZM 16.2183 0.931696C 16.851 0.931696 17.3658 1.44664 17.3658 2.07925L 17.5658 2.07925C 17.5658 1.3362 16.9615 0.731696 16.2183 0.731696L 16.2183 0.931696ZM 3.74268 0.931696L 16.2183 0.931696L 16.2183 0.731696L 3.74268 0.731696L 3.74268 0.931696ZM 15.1528 7.58532C 15.3123 7.58532 15.4615 7.51311 15.5601 7.38737L 15.4028 7.26394C 15.3422 7.34114 15.2511 7.38532 15.1528 7.38532L 15.1528 7.58532ZM 12.0601 7.58532L 15.1528 7.58532L 15.1528 7.38532L 12.0601 7.38532L 12.0601 7.58532ZM 11.544 7.06946C 11.544 7.35437 11.776 7.58532 12.0601 7.58532L 12.0601 7.38532C 11.8861 7.38532 11.744 7.24365 11.744 7.06946L 11.544 7.06946ZM 11.544 5.40607L 11.544 7.06946L 11.744 7.06946L 11.744 5.40607L 11.544 5.40607ZM 12.0601 4.8902C 11.776 4.8902 11.544 5.12115 11.544 5.40607L 11.744 5.40607C 11.744 5.23188 11.8861 5.0902 12.0601 5.0902L 12.0601 4.8902ZM 14.7378 4.8902L 12.0601 4.8902L 12.0601 5.0902L 14.7378 5.0902L 14.7378 4.8902ZM 15.2386 5.28009C 15.1805 5.05024 14.975 4.8902 14.7378 4.8902L 14.7378 5.0902C 14.8834 5.0902 15.009 5.18804 15.0447 5.3291L 15.2386 5.28009ZM 15.6541 6.94378L 15.2386 5.28036L 15.0446 5.32883L 15.4601 6.99225L 15.6541 6.94378ZM 15.5602 7.38728C 15.6593 7.26062 15.6934 7.09909 15.6541 6.94351L 15.4602 6.99252C 15.4843 7.08811 15.4637 7.18604 15.4027 7.26402L 15.5602 7.38728ZM 8.21787 5.4061L 8.21787 7.06534L 8.41787 7.06534L 8.41787 5.4061L 8.21787 5.4061ZM 7.90236 5.09026C 8.07569 5.09024 8.21787 5.23183 8.21787 5.4061L 8.41787 5.4061C 8.41787 5.12126 8.18603 4.89023 7.90233 4.89026L 7.90236 5.09026ZM 5.2251 5.09026L 7.90234 5.09026L 7.90234 4.89026L 5.2251 4.89026L 5.2251 5.09026ZM 4.91779 5.32902C 4.95299 5.18889 5.07852 5.09026 5.2251 5.09026L 5.2251 4.89026C 4.98691 4.89026 4.78138 5.05116 4.72381 5.28029L 4.91779 5.32902ZM 4.5018 6.99234L 4.91781 5.32892L 4.72379 5.28039L 4.30777 6.94382L 4.5018 6.99234ZM 4.5594 7.26432C 4.49867 7.18624 4.47801 7.08728 4.50179 6.99238L 4.30778 6.94378C 4.26906 7.09838 4.30308 7.26054 4.40153 7.38711L 4.5594 7.26432ZM 4.80908 7.38538C 4.7101 7.38538 4.62026 7.34143 4.55897 7.26376L 4.40197 7.38766C 4.50083 7.51294 4.6483 7.58538 4.80908 7.58538L 4.80908 7.38538ZM 7.90234 7.38538L 4.80908 7.38538L 4.80908 7.58538L 7.90234 7.58538L 7.90234 7.38538ZM 8.21738 7.0691C 8.21664 7.24488 8.07487 7.38538 7.90234 7.38538L 7.90234 7.58538C 8.18587 7.58538 8.41617 7.35498 8.41738 7.06994L 8.21738 7.0691ZM 8.21855 7.05374L 8.21806 7.05792L 8.41671 7.08112L 8.4172 7.07694L 8.21855 7.05374ZM 3.63818 7.38535L 2.38623 7.38535L 2.38623 7.58535L 3.63818 7.58535L 3.63818 7.38535ZM 3.9027 7.77663C 3.82477 7.67724 3.77449 7.57176 3.7325 7.45213L 3.54386 7.51858C 3.58977 7.64845 3.65473 7.78254 3.74476 7.89934L 3.9027 7.77663ZM 4.80811 8.21705C 4.45218 8.21705 4.12272 8.05656 3.90235 7.77619L 3.74511 7.89978C 4.00326 8.22823 4.3906 8.41705 4.80811 8.41705L 4.80811 8.21705ZM 7.90137 8.21705L 4.80811 8.21705L 4.80811 8.41705L 7.90137 8.41705L 7.90137 8.21705ZM 8.97807 7.45179C 8.81965 7.89639 8.39845 8.21705 7.90137 8.21705L 7.90137 8.41705C 8.48729 8.41705 8.98113 8.03909 9.16646 7.51891L 8.97807 7.45179ZM 10.8887 7.38535L 9.07227 7.38535L 9.07227 7.58535L 10.8887 7.58535L 10.8887 7.38535ZM 12.0601 8.21705C 11.5629 8.21705 11.1417 7.89718 10.9829 7.45176L 10.7945 7.51895C 10.9803 8.04001 11.4742 8.41705 12.0601 8.41705L 12.0601 8.21705ZM 15.1533 8.21705L 12.0601 8.21705L 12.0601 8.41705L 15.1533 8.41705L 15.1533 8.21705ZM 16.0586 7.77611C 15.8377 8.05664 15.5091 8.21705 15.1533 8.21705L 15.1533 8.41705C 15.5709 8.41705 15.9572 8.22815 16.2158 7.89985L 16.0586 7.77611ZM 16.2279 7.45213C 16.1859 7.57204 16.1361 7.67813 16.0585 7.77635L 16.216 7.89962C 16.3063 7.78323 16.3708 7.64818 16.4166 7.51858L 16.2279 7.45213ZM 17.5752 7.38535L 16.3223 7.38535L 16.3223 7.58535L 17.5752 7.58535L 17.5752 7.38535ZM 18.955 11.6295L 17.6708 7.45594L 17.4796 7.51476L 18.7638 11.6883L 18.955 11.6295ZM 18.7139 11.7439C 18.7541 11.7435 18.7956 11.7519 18.8475 11.7582L 18.8713 11.5596C 18.8265 11.5543 18.7732 11.5444 18.7139 11.5439L 18.7139 11.7439ZM 1.24756 11.7439L 18.7139 11.7439L 18.7139 11.5439L 1.24756 11.5439L 1.24756 11.7439ZM 1.11518 11.7581C 1.16596 11.7519 1.20729 11.7435 1.24756 11.7439L 1.24756 11.5439C 1.18822 11.5444 1.13482 11.5543 1.09088 11.5596L 1.11518 11.7581ZM 2.29065 7.45596L 1.00744 11.6295L 1.19861 11.6883L 2.48181 7.51474L 2.29065 7.45596ZM 1.66309 17.3659L 0.831543 17.3659L 0.831543 17.5659L 1.66309 17.5659L 1.66309 17.3659ZM 1.56309 16.6342L 1.56309 17.4659L 1.76309 17.4659L 1.76309 16.6342L 1.56309 16.6342ZM 0.831543 16.7342L 1.66309 16.7342L 1.66309 16.5342L 0.831543 16.5342L 0.831543 16.7342ZM 0.931543 17.4659L 0.931543 16.6342L 0.731543 16.6342L 0.731543 17.4659L 0.931543 17.4659ZM 18.1979 16.6342L 18.1979 17.4659L 18.3979 17.4659L 18.3979 16.6342L 18.1979 16.6342ZM 19.1294 16.5342L 18.2979 16.5342L 18.2979 16.7342L 19.1294 16.7342L 19.1294 16.5342ZM 19.2294 17.4659L 19.2294 16.6342L 19.0294 16.6342L 19.0294 17.4659L 19.2294 17.4659ZM 18.2979 17.5659L 19.1294 17.5659L 19.1294 17.3659L 18.2979 17.3659L 18.2979 17.5659ZM 19.1294 15.7025L 0.831543 15.7025L 0.831543 15.9025L 19.1294 15.9025L 19.1294 15.7025ZM 19.0294 12.8914L 19.0294 15.8025L 19.2294 15.8025L 19.2294 12.8914L 19.0294 12.8914ZM 18.7134 12.5756C 18.8869 12.5756 19.0294 12.7173 19.0294 12.8914L 19.2294 12.8914C 19.2294 12.6065 18.9969 12.3756 18.7134 12.3756L 18.7134 12.5756ZM 1.24756 12.5756L 18.7134 12.5756L 18.7134 12.3756L 1.24756 12.3756L 1.24756 12.5756ZM 0.931543 12.8914C 0.931543 12.7173 1.07365 12.5756 1.24756 12.5756L 1.24756 12.3756C 0.96346 12.3756 0.731543 12.6065 0.731543 12.8914L 0.931543 12.8914ZM 0.931543 15.8025L 0.931543 12.8914L 0.731543 12.8914L 0.731543 15.8025L 0.931543 15.8025Z"/>
</defs>
</svg>
