<svg xmlns="http://www.w3.org/2000/svg" xmlns:xlink="http://www.w3.org/1999/xlink" width="24" height="24" version="1.1" viewBox="0 0 24 24">
    <path fill-rule="evenodd" d="m20 11h-19.5a.5.5 0 0 0 -.5.5v2c0 5.79 4.24 10.5 9.5 10.5 3.43 0 6.41-2.01 8.08-5h2.42a4 4 0 0 0 0-8zm-10.5 12c-4.68 0-8.5-4.24-8.5-9.5v-1.5h17v1.5c0 5.26-3.82 9.5-8.5 9.5zm10.5-5h-1.93c.59-1.37.93-2.89.93-4.5v-1.5h1a3 3 0 0 1 0 6zm-11.9-13.7c-.96-1.28-.96-2.53-.37-3.58a2.7 2.7 0 0 1 .42-.57.5.5 0 0 1 .71.71 1.73 1.73 0 0 0 -.25.35c-.41.73-.41 1.55.3 2.49 1.5 2 1.6 3.85.48 5.13a.5.5 0 1 1 -.75-.66c.79-.89.71-2.22-.53-3.87zm-4.49 1.03c-.77-.89-.77-1.85-.31-2.7a2.5 2.5 0 0 1 .32-.46.5.5 0 1 1 .74.67c-.04.04-.1.13-.18.26-.28.52-.28 1.04.15 1.54 2.12 2 2.16 3.22.45 4.29a.5.5 0 1 1 -.53-.85c1.09-.68 1.08-1.12-.64-2.75zm9 0c-.77-.89-.77-1.85-.31-2.7a2.5 2.5 0 0 1 .32-.46.5.5 0 1 1 .74.67c-.04.04-.1.13-.18.26-.28.52-.28 1.04.15 1.54 2.12 2 2.16 3.22.45 4.29a.5.5 0 0 1 -.53-.85c1.09-.68 1.08-1.12-.64-2.75z"/>
</svg>
