<svg xmlns="http://www.w3.org/2000/svg" xmlns:xlink="http://www.w3.org/1999/xlink" width="24" height="24" version="1.1" viewBox="0 0 24 24">
    <path fill-rule="evenodd" d="m5 3.5a1.5 1.5 0 1 0 -3 0 1.5 1.5 0 0 0 3 0zm-1.5.5a.5.5 0 1 1 0-1 .5.5 0 0 1 0 1zm4 1a1.5 1.5 0 1 0 0-3 1.5 1.5 0 0 0 0 3zm0-2a .5.5 0 1 1 0 1 .5.5 0 0 1 0-1zm4.5 3c-4.41 0-8 3.59-8 8s3.59 8 8 8 8-3.59 8-8-3.59-8-8-8zm0 15c-3.86 0-7-3.14-7-7s3.14-7 7-7 7 3.14 7 7-3.14 7-7 7zm9.5-21h-19a2.51 2.51 0 0 0 -2.5 2.5v19c0 1.38 1.12 2.5 2.5 2.5h19c1.38 0 2.5-1.12 2.5-2.5v-19c0-1.38-1.12-2.5-2.5-2.5zm1.5 21.5c0 .83-.68 1.5-1.5 1.5h-19c-.83 0-1.5-.68-1.5-1.5v-19c0-.83.68-1.5 1.5-1.5h19c .83 0 1.5.68 1.5 1.5zm-6.17-6.12a.5.5 0 0 1 .04.71 2.49 2.49 0 0 1 -.63.48c-1.15.65-2.67.65-4.49-.38-1.52-.85-2.66-.85-3.51-.38a1.57 1.57 0 0 0 -.37.27.5.5 0 1 1 -.75-.66 2.49 2.49 0 0 1 .63-.48c1.15-.65 2.67-.65 4.49.38 1.52.85 2.66.85 3.51.38a1.57 1.57 0 0 0 .37-.27.5.5 0 0 1 .71-.04zm0-3.5a.5.5 0 0 1 .04.71 2.49 2.49 0 0 1 -.63.48c-1.15.65-2.67.65-4.49-.38-1.52-.85-2.66-.85-3.51-.38a1.57 1.57 0 0 0 -.37.27.5.5 0 1 1 -.75-.66 2.49 2.49 0 0 1 .63-.48c1.15-.65 2.67-.65 4.49.38 1.52.85 2.66.85 3.51.38a1.57 1.57 0 0 0 .37-.27.5.5 0 0 1 .71-.04z"/>
</svg>
