<svg width="16" height="20" viewBox="0 0 16 20" version="1.1" xmlns="http://www.w3.org/2000/svg" xmlns:xlink="http://www.w3.org/1999/xlink">
<title>svgexport-23</title>
<desc>Created using Figma</desc>
<g id="Canvas" transform="translate(-7945 -76)">
<g id="svgexport-23">
<g id="Shape">
<use xlink:href="#path0_fill" transform="translate(7945 76)"/>
</g>
</g>
</g>
<defs>
<path id="path0_fill" fill-rule="evenodd" d="M 1.25733 0L 14.7427 0C 15.439 0.00321198 16.0015 0.563438 16 1.2525L 16 18.7475C 16 19.4383 15.4297 20 14.7295 20L 10.9473 20C 10.7148 20 10.5264 19.8135 10.5264 19.5833C 10.5264 19.3532 10.7148 19.1667 10.9473 19.1667L 14.7295 19.1667C 14.8428 19.1687 14.9522 19.1253 15.0327 19.0464C 15.1133 18.9675 15.1587 18.8597 15.1577 18.7475L 15.1577 1.2525C 15.1592 1.02367 14.9741 0.836533 14.7427 0.833336L 1.25733 0.833336C 1.02491 0.833336 0.842288 1.01667 0.842288 1.2525L 0.842288 18.7475C 0.841311 18.8582 0.885257 18.9645 0.96387 19.0432C 1.04248 19.1218 1.14991 19.1662 1.26172 19.1667L 7.15967 19.1667C 7.27149 19.1662 7.37793 19.1219 7.45703 19.0434C 7.53565 18.965 7.57959 18.8588 7.5791 18.7483L 7.5791 11.6667L 5.88721 11.6667C 5.42725 11.6667 5.05274 11.2967 5.05274 10.8417L 5.05274 8.325C 5.05371 7.86942 5.42676 7.50046 5.88721 7.5L 5.89453 7.5L 5.89453 6.66333C 5.89405 6.2065 6.2666 5.83517 6.72852 5.83334L 9.27149 5.83334C 9.7334 5.83517 10.106 6.2065 10.1055 6.66333L 10.1128 7.5C 10.5732 7.50046 10.9463 7.86942 10.9473 8.325L 10.9473 10.8417C 10.9463 11.2972 10.5732 11.6662 10.1128 11.6667L 8.4209 11.6667L 8.4209 18.7483C 8.4209 19.4383 7.85498 20 7.15967 20L 1.26172 20C 0.565921 20 2.85453e-06 19.4392 2.85453e-06 18.7475L 2.85453e-06 1.2525C -0.00146199 0.563438 0.561038 0.00321198 1.25733 0ZM 5.88721 8.33333L 5.89502 10.8417L 7.5791 10.8383L 7.5791 10.0017C 7.5791 9.77155 7.76758 9.585 8 9.585C 8.23242 9.585 8.4209 9.77155 8.4209 10.0017L 8.4209 10.8367L 10.1128 10.8333L 10.1055 8.325L 9.26319 8.33333L 9.26319 6.66333L 6.72852 6.66666L 6.73682 8.33333L 5.88721 8.33333Z"/>
</defs>
</svg>
