<svg width="20" height="20" viewBox="0 0 20 20" version="1.1" xmlns="http://www.w3.org/2000/svg" xmlns:xlink="http://www.w3.org/1999/xlink">
<title>svgexport-26</title>
<desc>Created using Figma</desc>
<g id="Canvas" transform="translate(-8327 -120)">
<g id="svgexport-26">
<g id="Shape">
<use xlink:href="#path0_fill" transform="translate(8327 120)"/>
</g>
</g>
</g>
<defs>
<path id="path0_fill" fill-rule="evenodd" d="M 0 10C 0 4.4775 4.47754 0 10 0C 15.5225 0 20 4.4775 20 10C 20 15.5225 15.5225 20 10 20C 4.47754 20 0 15.5225 0 10ZM 0.833008 10C 0.833008 15.0625 4.9375 19.1667 10 19.1667C 15.0625 19.1667 19.166 15.0625 19.166 10C 19.166 4.9375 15.0625 0.833336 10 0.833336C 4.9375 0.833336 0.833008 4.9375 0.833008 10ZM 11.0195 5L 7.26953 5L 7.26953 14.5833C 7.26953 14.8134 7.45605 15 7.68652 15C 7.91602 15 8.10254 14.8134 8.10254 14.5833L 8.10254 10.8333L 11.0195 10.8333C 12.6279 10.8333 13.9365 9.52583 13.9365 7.91666C 13.9365 6.30833 12.6279 5 11.0195 5ZM 8.09961 10L 11.0166 10C 12.1641 10 13.0996 9.06584 13.0996 7.91667C 13.0996 6.76833 12.165 5.83334 11.0166 5.83334L 8.09961 5.83334L 8.09961 10Z"/>
</defs>
</svg>
