<svg xmlns="http://www.w3.org/2000/svg" xmlns:xlink="http://www.w3.org/1999/xlink" width="24" height="24" version="1.1" viewBox="0 0 24 24">
    <path fill-rule="evenodd" d="m5 3.5a1.5 1.5 0 1 0 -3 0 1.5 1.5 0 0 0 3 0zm-1.5.5a.5.5 0 1 1 0-1 .5.5 0 0 1 0 1zm4 1a1.5 1.5 0 1 0 0-3 1.5 1.5 0 0 0 0 3zm0-2a .5.5 0 1 1 0 1 .5.5 0 0 1 0-1zm4.5 3c-4.41 0-8 3.59-8 8s3.59 8 8 8 8-3.59 8-8-3.59-8-8-8zm0 15c-3.77 0-6.84-2.99-6.99-6.73.35-.23.84-.57.85-.57 1.64-1.05 3.31-1.06 5.85.71 2.88 2.01 4.99 1.99 6.96.73l.25-.17c-.47 3.4-3.39 6.03-6.92 6.03zm6.13-6.7c-1.64 1.05-3.31 1.06-5.85-.71-2.88-2.01-4.99-1.99-6.96-.73l-.25.17c.48-3.4 3.4-6.03 6.93-6.03 3.77 0 6.84 2.99 6.99 6.73-.35.23-.84.57-.85.57zm3.37-14.3h-19a2.51 2.51 0 0 0 -2.5 2.5v19c0 1.38 1.12 2.5 2.5 2.5h19c1.38 0 2.5-1.12 2.5-2.5v-19c0-1.37-1.12-2.5-2.5-2.5zm1.5 21.5c0 .83-.68 1.5-1.5 1.5h-19c-.83 0-1.5-.68-1.5-1.5v-19c0-.82.68-1.5 1.5-1.5h19c .83 0 1.5.68 1.5 1.5z"/>
</svg>
