<svg width="20" height="15" viewBox="0 0 20 15" version="1.1" xmlns="http://www.w3.org/2000/svg" xmlns:xlink="http://www.w3.org/1999/xlink">
<title>svgexport-24 2</title>
<desc>Created using Figma</desc>
<g id="Canvas" transform="translate(-7943 -123)">
<g id="svgexport-24 2">
<g id="Vector">
<use xlink:href="#path0_fill" transform="translate(7943 123)"/>
</g>
</g>
</g>
<defs>
<path id="path0_fill" fill-rule="evenodd" d="M 9.99957 9.99951C 9.33656 9.99951 8.70071 10.2629 8.23189 10.7317C 7.76307 11.2005 7.49969 11.8364 7.49969 12.4994C 7.49969 13.1624 7.76307 13.7983 8.23189 14.2671C 8.70071 14.7359 9.33656 14.9993 9.99957 14.9993C 10.6626 14.9993 11.2984 14.7359 11.7673 14.2671C 12.2361 13.7983 12.4994 13.1624 12.4994 12.4994C 12.4994 11.8364 12.2361 11.2005 11.7673 10.7317C 11.2984 10.2629 10.6626 9.99951 9.99957 9.99951ZM 9.99957 14.166C 9.55757 14.166 9.13366 13.9904 8.82112 13.6778C 8.50857 13.3653 8.33299 12.9414 8.33299 12.4994C 8.33299 12.0574 8.50857 11.6335 8.82112 11.3209C 9.13366 11.0084 9.55757 10.8328 9.99957 10.8328C 10.4416 10.8328 10.8655 11.0084 11.178 11.3209C 11.4906 11.6335 11.6662 12.0574 11.6662 12.4994C 11.6662 12.9414 11.4906 13.3653 11.178 13.6778C 10.8655 13.9904 10.4416 14.166 9.99957 14.166ZM 14.931 9.35371C 14.9611 9.39945 14.9819 9.45067 14.9922 9.50445C 15.0025 9.55823 15.0021 9.6135 14.991 9.66713C 14.9799 9.72075 14.9584 9.77167 14.9277 9.81697C 14.8969 9.86228 14.8576 9.90109 14.8118 9.93118C 14.7661 9.96128 14.7149 9.98207 14.6611 9.99236C 14.6073 10.0027 14.552 10.0023 14.4984 9.9912C 14.4448 9.98013 14.3939 9.95862 14.3486 9.92787C 14.3033 9.89713 14.2645 9.85776 14.2344 9.81202C 13.2427 8.30293 11.6762 7.49963 9.99957 7.49963C 8.32299 7.49963 6.7564 8.30293 5.76478 9.81202C 5.704 9.9044 5.60902 9.96885 5.50072 9.9912C 5.39242 10.0135 5.27968 9.99196 5.1873 9.93118C 5.09493 9.87041 5.03047 9.77542 5.00813 9.66713C 4.98578 9.55883 5.00737 9.44609 5.06814 9.35371C 6.21809 7.60463 8.04967 6.66634 9.99957 6.66634C 11.9495 6.66634 13.7811 7.60463 14.931 9.35371ZM 17.4159 6.82883C 17.4533 6.87162 17.4817 6.92163 17.4991 6.97578C 17.5165 7.02993 17.5226 7.08707 17.5171 7.14368C 17.5116 7.20029 17.4946 7.25517 17.467 7.30495C 17.4395 7.35472 17.4021 7.39833 17.3571 7.43309C 17.312 7.46786 17.2604 7.49303 17.2053 7.50707C 17.1501 7.52111 17.0927 7.52372 17.0366 7.51473C 16.9804 7.50574 16.9267 7.48534 16.8787 7.4548C 16.8307 7.42426 16.7895 7.38422 16.7576 7.33714C 15.3743 5.5514 12.4045 4.16646 9.99957 4.16646C 7.63969 4.16646 4.78649 5.51556 3.2349 7.35214C 3.16352 7.43656 3.06152 7.48917 2.95135 7.49839C 2.84117 7.50761 2.73185 7.47269 2.64743 7.40131C 2.56301 7.32992 2.5104 7.22792 2.50118 7.11775C 2.49196 7.00758 2.52688 6.89826 2.59826 6.81383C 4.30651 4.79227 7.3922 3.33317 9.99957 3.33317C 12.6578 3.33317 15.8718 4.83143 17.4159 6.828L 17.4159 6.82883ZM 19.8699 4.88476C 19.8303 4.92252 19.7837 4.95211 19.7326 4.97183C 19.6816 4.99156 19.6271 5.00103 19.5724 4.99972C 19.5177 4.9984 19.4638 4.98632 19.4138 4.96417C 19.3637 4.94201 19.3185 4.91022 19.2808 4.8706C 16.8309 2.30405 13.6944 0.833293 9.99957 0.833293C 6.30475 0.833293 3.16657 2.30489 0.718356 4.8706C 0.64211 4.9506 0.537206 4.99704 0.426721 4.99969C 0.316236 5.00235 0.209221 4.96101 0.129218 4.88476C 0.0492149 4.80852 0.0027772 4.70361 0.000120557 4.59313C -0.00253608 4.48264 0.038806 4.37563 0.115052 4.29562C 2.71493 1.57076 6.06476 0 9.99957 0C 13.9344 0 17.2842 1.57159 19.8849 4.29562C 19.9227 4.33523 19.9523 4.38189 19.972 4.43294C 19.9917 4.48399 20.0012 4.53842 19.9999 4.59313C 19.9986 4.64784 19.9865 4.70175 19.9643 4.75179C 19.9422 4.80183 19.9104 4.84701 19.8708 4.88476L 19.8699 4.88476Z"/>
</defs>
</svg>
