<svg width="20" height="16" viewBox="0 0 20 16" version="1.1" xmlns="http://www.w3.org/2000/svg" xmlns:xlink="http://www.w3.org/1999/xlink">
<title>svgexport-25</title>
<desc>Created using Figma</desc>
<g id="Canvas" transform="translate(-8327 -80)">
<g id="svgexport-25">
<g id="Shape">
<use xlink:href="#path0_fill" transform="translate(8327.83 80.1667)"/>
</g>
</g>
</g>
<defs>
<path id="path0_fill" fill-rule="evenodd" d="M 0.833984 2.5C 0.833984 1.11929 1.95312 0 3.33398 0C 4.71484 0 5.83398 1.11929 5.83398 2.5C 5.83398 3.88071 4.71484 5 3.33398 5C 1.95312 5 0.833984 3.88071 0.833984 2.5ZM 2.08105 12.5L 5.02051 12.5C 5.11914 10.9736 6.31641 9.74707 7.83984 9.61167C 7.11133 9.15713 6.66797 8.3591 6.66699 7.5L 6.66699 7.49751C 6.67188 6.46084 5.85742 5.83334 4.58594 5.83334L 2.08105 5.83334C 0.932617 5.83472 0.000976562 6.76553 0 7.91417L 0 10.4192C 0.000976562 11.5678 0.932617 12.4986 2.08105 12.5ZM 10.21 15L 8.125 15C 6.86035 14.9986 5.83496 13.9733 5.83398 12.7083C 5.83301 12.1001 6.07324 11.5165 6.50391 11.0864C 6.93359 10.6564 7.51758 10.4153 8.12598 10.4167L 10.209 10.4167C 11.4746 10.4176 12.5 11.4431 12.501 12.7083C 12.502 13.3165 12.2607 13.9002 11.8311 14.3303C 11.4004 14.7603 10.8174 15.0013 10.21 15ZM 17.4805 11.6433C 18.0273 11.0952 18.335 10.3521 18.334 9.5775L 18.334 5.42167C 18.334 3.80919 17.0283 2.50138 15.416 2.5L 12.9189 2.5C 11.3965 2.5 10.1602 3.67167 10.0264 5.16084C 11.0098 5.51877 11.666 6.45313 11.667 7.5C 11.666 8.35926 11.2227 9.15733 10.4932 9.61166C 12.0156 9.75006 13.2109 10.9748 13.3135 12.5L 15.416 12.5C 16.1904 12.4996 16.9326 12.1914 17.4805 11.6433Z"/>
</defs>
</svg>
