<?xml version="1.0" encoding="UTF-8" standalone="no"?>
<svg
   xmlns:dc="http://purl.org/dc/elements/1.1/"
   xmlns:cc="http://creativecommons.org/ns#"
   xmlns:rdf="http://www.w3.org/1999/02/22-rdf-syntax-ns#"
   xmlns:svg="http://www.w3.org/2000/svg"
   xmlns="http://www.w3.org/2000/svg"
   xmlns:xlink="http://www.w3.org/1999/xlink"
   xmlns:sodipodi="http://sodipodi.sourceforge.net/DTD/sodipodi-0.dtd"
   xmlns:inkscape="http://www.inkscape.org/namespaces/inkscape"
   width="16"
   height="20"
   viewBox="0 0 16 20"
   version="1.1"
   id="svg4387"
   inkscape:version="0.91 r13725"
   sodipodi:docname="pinIcon.svg">
  <metadata
     id="metadata4431">
    <rdf:RDF>
      <cc:Work
         rdf:about="">
        <dc:format>image/svg+xml</dc:format>
        <dc:type
           rdf:resource="http://purl.org/dc/dcmitype/StillImage" />
        <dc:title>map</dc:title>
      </cc:Work>
    </rdf:RDF>
  </metadata>
  <sodipodi:namedview
     pagecolor="#ffffff"
     bordercolor="#666666"
     borderopacity="1"
     objecttolerance="10"
     gridtolerance="10"
     guidetolerance="10"
     inkscape:pageopacity="0"
     inkscape:pageshadow="2"
     inkscape:window-width="1918"
     inkscape:window-height="1157"
     id="namedview4429"
     showgrid="false"
     fit-margin-top="0"
     fit-margin-left="0"
     fit-margin-right="0"
     fit-margin-bottom="0"
     inkscape:zoom="4.9166667"
     inkscape:cx="-60.479343"
     inkscape:cy="-24.638279"
     inkscape:window-x="0"
     inkscape:window-y="42"
     inkscape:window-maximized="0"
     inkscape:current-layer="map" />
  <title
     id="title4389">map</title>
  <desc
     id="desc4391">Created using Figma</desc>
  <g
     id="Canvas"
     transform="translate(-5363.1065,-1130.3617)">
    <g
       id="map">
      <g
         id="location"
         transform="translate(22.11025,-32.639513)">
        <g
           id="Shape">
          <use
             xlink:href="#path2_fill"
             transform="translate(5341.34,1163.47)"
             id="use4407"
             style="fill:#008489"
             x="0"
             y="0"
             width="100%"
             height="100%" />
        </g>
      </g>
    </g>
  </g>
  <defs
     id="defs4409">
    <filter
       id="filter0_d"
       filterUnits="userSpaceOnUse"
       x="5325"
       y="1151"
       width="48"
       height="48"
       style="color-interpolation-filters:sRGB">
      <feFlood
         flood-opacity="0"
         result="BackgroundImageFix"
         id="feFlood4412" />
      <feColorMatrix
         in="SourceAlpha"
         type="matrix"
         values="0 0 0 0 0 0 0 0 0 0 0 0 0 0 0 0 0 0 255 0"
         id="feColorMatrix4414" />
      <feOffset
         dx="0"
         dy="2"
         id="feOffset4416" />
      <feGaussianBlur
         stdDeviation="2"
         id="feGaussianBlur4418" />
      <feColorMatrix
         type="matrix"
         values="0 0 0 0 0.282353 0 0 0 0 0.282353 0 0 0 0 0.282353 0 0 0 0.16 0"
         id="feColorMatrix4420" />
      <feBlend
         mode="normal"
         in2="BackgroundImageFix"
         result="effect1_dropShadow"
         id="feBlend4422" />
      <feBlend
         mode="normal"
         in="SourceGraphic"
         in2="effect1_dropShadow"
         result="shape"
         id="feBlend4424" />
    </filter>
    <path
       id="path0_fill"
       d="M 0,20 C 0,8.9543 8.9543,0 20,0 31.0457,0 40,8.9543 40,20 40,31.0457 31.0457,40 20,40 8.9543,40 0,31.0457 0,20 Z"
       inkscape:connector-curvature="0"
       style="fill-rule:evenodd" />
    <path
       id="path1_stroke_2x"
       d="M 20,39 C 9.50659,39 1,30.4934 1,20 l -2,0 c 0,11.598 9.40202,21 21,21 l 0,-2 z M 39,20 c 0,10.4934 -8.5066,19 -19,19 l 0,2 c 11.598,0 21,-9.402 21,-21 l -2,0 z M 20,1 c 10.4934,0 19,8.50659 19,19 l 2,0 C 41,8.40202 31.598,-1 20,-1 l 0,2 z m 0,-2 C 8.40202,-1 -1,8.40202 -1,20 l 2,0 C 1,9.50659 9.50659,1 20,1 l 0,-2 z"
       inkscape:connector-curvature="0" />
    <path
       id="path2_fill"
       d="M 0,7.65625 C 0,3.42749 3.42773,0 7.65625,0 c 4.22855,0 7.65625,3.42749 7.65625,7.65625 0,3.98125 -2.0176,6.95995 -7.36084,11.30125 -0.17187,0.1399 -0.41895,0.1399 -0.59082,0 C 2.01758,14.6162 0,11.6375 0,7.65625 Z M 5.08545,9.14062 C 5.61572,10.0592 6.5957,10.625 7.65625,10.625 9.2959,10.625 10.625,9.2959 10.625,7.65625 10.625,6.0166 9.2959,4.6875 7.65625,4.6875 c -1.06055,0 -2.04053,0.5658 -2.5708,1.48438 -0.53076,0.91857 -0.53076,2.05017 0,2.96874 z"
       inkscape:connector-curvature="0"
       style="fill-rule:evenodd" />
  </defs>
</svg>
